<mxfile host="app.diagrams.net" modified="2023-12-20T10:22:04.196Z" agent="Mozilla/5.0 (Windows NT 10.0; Win64; x64) AppleWebKit/537.36 (KHTML, like Gecko) Chrome/119.0.0.0 Safari/537.36 Edg/119.0.0.0" etag="ajVLIrjW4WXTObiJI4Ot" version="22.1.9" type="github" pages="6">
  <diagram name="Youtube Initial design" id="feK6UR_0gXUUhqBv7dY3">
    <mxGraphModel dx="1762" dy="388" grid="0" gridSize="10" guides="1" tooltips="1" connect="1" arrows="1" fold="1" page="0" pageScale="1" pageWidth="827" pageHeight="1169" math="0" shadow="0">
      <root>
        <mxCell id="0" />
        <mxCell id="1" parent="0" />
        <mxCell id="eeu2ur5OAnoY-3zIRVY6-1" value="Requirements :-&lt;br&gt;Functional Requirements :-&lt;br&gt;1)search&lt;br&gt;2)post (video, meta data) (more write heavy for youtube)&lt;br&gt;3)watch(playback)&lt;br&gt;4)history / profile&amp;nbsp;&lt;br&gt;5) All devices should be supported(mobiles,laptops,etc)&lt;br&gt;(format,dimesions,bandwidth)&lt;br&gt;&lt;br&gt;Non Functional Requirements :-&lt;br&gt;1) low latency (no buffering)&lt;br&gt;2) Availability&lt;br&gt;3) read heavy&amp;nbsp;&lt;br&gt;4)good recommendation" style="rounded=0;whiteSpace=wrap;html=1;fontSize=16;" vertex="1" parent="1">
          <mxGeometry x="-400" y="850" width="413" height="301" as="geometry" />
        </mxCell>
        <mxCell id="eeu2ur5OAnoY-3zIRVY6-2" value="User" style="rounded=0;whiteSpace=wrap;html=1;fontSize=16;" vertex="1" parent="1">
          <mxGeometry x="-71" y="503" width="120" height="60" as="geometry" />
        </mxCell>
        <mxCell id="eeu2ur5OAnoY-3zIRVY6-7" style="edgeStyle=none;curved=1;rounded=0;orthogonalLoop=1;jettySize=auto;html=1;fontSize=12;startSize=8;endSize=8;" edge="1" parent="1" target="eeu2ur5OAnoY-3zIRVY6-4">
          <mxGeometry relative="1" as="geometry">
            <mxPoint x="188" y="537" as="sourcePoint" />
          </mxGeometry>
        </mxCell>
        <mxCell id="eeu2ur5OAnoY-3zIRVY6-33" style="edgeStyle=none;curved=1;rounded=0;orthogonalLoop=1;jettySize=auto;html=1;entryX=0;entryY=0.25;entryDx=0;entryDy=0;fontSize=12;startSize=8;endSize=8;" edge="1" parent="1" target="eeu2ur5OAnoY-3zIRVY6-30">
          <mxGeometry relative="1" as="geometry">
            <mxPoint x="188" y="1023" as="sourcePoint" />
          </mxGeometry>
        </mxCell>
        <mxCell id="eeu2ur5OAnoY-3zIRVY6-43" style="edgeStyle=none;curved=1;rounded=0;orthogonalLoop=1;jettySize=auto;html=1;entryX=0;entryY=0.5;entryDx=0;entryDy=0;fontSize=12;startSize=8;endSize=8;" edge="1" parent="1" target="eeu2ur5OAnoY-3zIRVY6-38">
          <mxGeometry relative="1" as="geometry">
            <mxPoint x="192" y="1239" as="sourcePoint" />
          </mxGeometry>
        </mxCell>
        <mxCell id="eeu2ur5OAnoY-3zIRVY6-72" style="edgeStyle=none;curved=1;rounded=0;orthogonalLoop=1;jettySize=auto;html=1;entryX=0;entryY=0.75;entryDx=0;entryDy=0;fontSize=12;startSize=8;endSize=8;exitX=1.099;exitY=0.658;exitDx=0;exitDy=0;exitPerimeter=0;" edge="1" parent="1" source="eeu2ur5OAnoY-3zIRVY6-3" target="eeu2ur5OAnoY-3zIRVY6-55">
          <mxGeometry relative="1" as="geometry" />
        </mxCell>
        <mxCell id="eeu2ur5OAnoY-3zIRVY6-3" value="Load&lt;br&gt;Balancer" style="rounded=0;whiteSpace=wrap;html=1;fontSize=16;" vertex="1" parent="1">
          <mxGeometry x="113" y="429" width="77" height="1598" as="geometry" />
        </mxCell>
        <mxCell id="eeu2ur5OAnoY-3zIRVY6-6" style="edgeStyle=none;curved=1;rounded=0;orthogonalLoop=1;jettySize=auto;html=1;entryX=0;entryY=0.5;entryDx=0;entryDy=0;fontSize=12;startSize=8;endSize=8;" edge="1" parent="1" source="eeu2ur5OAnoY-3zIRVY6-4" target="eeu2ur5OAnoY-3zIRVY6-5">
          <mxGeometry relative="1" as="geometry" />
        </mxCell>
        <mxCell id="eeu2ur5OAnoY-3zIRVY6-4" value="User Service CRUD (youtube account)" style="rounded=0;whiteSpace=wrap;html=1;fontSize=16;" vertex="1" parent="1">
          <mxGeometry x="305" y="503" width="120" height="60" as="geometry" />
        </mxCell>
        <mxCell id="eeu2ur5OAnoY-3zIRVY6-5" value="My Sql DataBase" style="rounded=0;whiteSpace=wrap;html=1;fontSize=16;" vertex="1" parent="1">
          <mxGeometry x="520" y="503" width="120" height="60" as="geometry" />
        </mxCell>
        <mxCell id="eeu2ur5OAnoY-3zIRVY6-11" style="edgeStyle=none;curved=1;rounded=0;orthogonalLoop=1;jettySize=auto;html=1;fontSize=12;startSize=8;endSize=8;entryX=0.5;entryY=0;entryDx=0;entryDy=0;" edge="1" parent="1" source="eeu2ur5OAnoY-3zIRVY6-9" target="eeu2ur5OAnoY-3zIRVY6-28">
          <mxGeometry relative="1" as="geometry">
            <mxPoint x="361" y="753" as="targetPoint" />
          </mxGeometry>
        </mxCell>
        <mxCell id="eeu2ur5OAnoY-3zIRVY6-19" style="edgeStyle=none;curved=1;rounded=0;orthogonalLoop=1;jettySize=auto;html=1;fontSize=12;startSize=8;endSize=8;" edge="1" parent="1" source="eeu2ur5OAnoY-3zIRVY6-9">
          <mxGeometry relative="1" as="geometry">
            <mxPoint x="1077" y="664" as="targetPoint" />
          </mxGeometry>
        </mxCell>
        <mxCell id="eeu2ur5OAnoY-3zIRVY6-82" value="Text" style="edgeLabel;html=1;align=center;verticalAlign=middle;resizable=0;points=[];fontSize=16;" vertex="1" connectable="0" parent="eeu2ur5OAnoY-3zIRVY6-19">
          <mxGeometry x="0.7425" y="-2" relative="1" as="geometry">
            <mxPoint as="offset" />
          </mxGeometry>
        </mxCell>
        <mxCell id="eeu2ur5OAnoY-3zIRVY6-21" style="edgeStyle=none;curved=1;rounded=0;orthogonalLoop=1;jettySize=auto;html=1;exitX=1;exitY=0.75;exitDx=0;exitDy=0;fontSize=12;startSize=8;endSize=8;" edge="1" parent="1" source="eeu2ur5OAnoY-3zIRVY6-9" target="eeu2ur5OAnoY-3zIRVY6-22">
          <mxGeometry relative="1" as="geometry">
            <mxPoint x="498.3333333333335" y="728" as="targetPoint" />
          </mxGeometry>
        </mxCell>
        <mxCell id="eeu2ur5OAnoY-3zIRVY6-9" value="video Ingestion Service" style="rounded=0;whiteSpace=wrap;html=1;fontSize=16;" vertex="1" parent="1">
          <mxGeometry x="259" y="661" width="120" height="60" as="geometry" />
        </mxCell>
        <mxCell id="eeu2ur5OAnoY-3zIRVY6-10" style="edgeStyle=none;curved=1;rounded=0;orthogonalLoop=1;jettySize=auto;html=1;exitX=0.75;exitY=1;exitDx=0;exitDy=0;fontSize=12;startSize=8;endSize=8;" edge="1" parent="1" source="eeu2ur5OAnoY-3zIRVY6-9" target="eeu2ur5OAnoY-3zIRVY6-9">
          <mxGeometry relative="1" as="geometry" />
        </mxCell>
        <mxCell id="eeu2ur5OAnoY-3zIRVY6-13" style="edgeStyle=none;curved=1;rounded=0;orthogonalLoop=1;jettySize=auto;html=1;fontSize=12;startSize=8;endSize=8;" edge="1" parent="1" source="eeu2ur5OAnoY-3zIRVY6-12">
          <mxGeometry relative="1" as="geometry">
            <mxPoint x="681.1428571428573" y="832" as="targetPoint" />
          </mxGeometry>
        </mxCell>
        <mxCell id="eeu2ur5OAnoY-3zIRVY6-12" value="video resolution convertor" style="rounded=0;whiteSpace=wrap;html=1;fontSize=16;" vertex="1" parent="1">
          <mxGeometry x="473" y="802" width="120" height="60" as="geometry" />
        </mxCell>
        <mxCell id="eeu2ur5OAnoY-3zIRVY6-16" style="edgeStyle=none;curved=1;rounded=0;orthogonalLoop=1;jettySize=auto;html=1;entryX=0;entryY=0.5;entryDx=0;entryDy=0;fontSize=12;startSize=8;endSize=8;" edge="1" parent="1" source="eeu2ur5OAnoY-3zIRVY6-14" target="eeu2ur5OAnoY-3zIRVY6-15">
          <mxGeometry relative="1" as="geometry" />
        </mxCell>
        <mxCell id="eeu2ur5OAnoY-3zIRVY6-14" value="video formatter" style="rounded=0;whiteSpace=wrap;html=1;fontSize=16;" vertex="1" parent="1">
          <mxGeometry x="680" y="802" width="120" height="60" as="geometry" />
        </mxCell>
        <mxCell id="eeu2ur5OAnoY-3zIRVY6-17" style="edgeStyle=none;curved=1;rounded=0;orthogonalLoop=1;jettySize=auto;html=1;exitX=0.5;exitY=1;exitDx=0;exitDy=0;fontSize=12;startSize=8;endSize=8;" edge="1" parent="1" source="eeu2ur5OAnoY-3zIRVY6-15">
          <mxGeometry relative="1" as="geometry">
            <mxPoint x="938.666666666667" y="918.7857259114585" as="targetPoint" />
          </mxGeometry>
        </mxCell>
        <mxCell id="eeu2ur5OAnoY-3zIRVY6-15" value="video divider into chunks" style="rounded=0;whiteSpace=wrap;html=1;fontSize=16;" vertex="1" parent="1">
          <mxGeometry x="878" y="802" width="120" height="60" as="geometry" />
        </mxCell>
        <mxCell id="eeu2ur5OAnoY-3zIRVY6-18" value="CDN" style="rounded=0;whiteSpace=wrap;html=1;fontSize=16;" vertex="1" parent="1">
          <mxGeometry x="881" y="922" width="120" height="60" as="geometry" />
        </mxCell>
        <mxCell id="eeu2ur5OAnoY-3zIRVY6-41" style="edgeStyle=none;curved=1;rounded=0;orthogonalLoop=1;jettySize=auto;html=1;entryX=1;entryY=0.25;entryDx=0;entryDy=0;fontSize=12;startSize=8;endSize=8;" edge="1" parent="1" target="eeu2ur5OAnoY-3zIRVY6-40">
          <mxGeometry relative="1" as="geometry">
            <mxPoint x="1084" y="1220" as="sourcePoint" />
          </mxGeometry>
        </mxCell>
        <mxCell id="eeu2ur5OAnoY-3zIRVY6-63" style="edgeStyle=none;curved=1;rounded=0;orthogonalLoop=1;jettySize=auto;html=1;exitX=1;exitY=0.25;exitDx=0;exitDy=0;fontSize=12;startSize=8;endSize=8;" edge="1" parent="1" source="eeu2ur5OAnoY-3zIRVY6-20">
          <mxGeometry relative="1" as="geometry">
            <mxPoint x="1370.8333333333335" y="749.0665893554688" as="targetPoint" />
          </mxGeometry>
        </mxCell>
        <mxCell id="eeu2ur5OAnoY-3zIRVY6-66" style="edgeStyle=none;curved=1;rounded=0;orthogonalLoop=1;jettySize=auto;html=1;entryX=0;entryY=0.5;entryDx=0;entryDy=0;fontSize=12;startSize=8;endSize=8;exitX=1.03;exitY=0.366;exitDx=0;exitDy=0;exitPerimeter=0;" edge="1" parent="1" source="eeu2ur5OAnoY-3zIRVY6-20" target="eeu2ur5OAnoY-3zIRVY6-65">
          <mxGeometry relative="1" as="geometry" />
        </mxCell>
        <mxCell id="eeu2ur5OAnoY-3zIRVY6-74" style="edgeStyle=none;curved=1;rounded=0;orthogonalLoop=1;jettySize=auto;html=1;fontSize=12;startSize=8;endSize=8;" edge="1" parent="1">
          <mxGeometry relative="1" as="geometry">
            <mxPoint x="1083" y="1855" as="sourcePoint" />
            <mxPoint x="951" y="1864" as="targetPoint" />
          </mxGeometry>
        </mxCell>
        <mxCell id="eeu2ur5OAnoY-3zIRVY6-20" value="KAFKA" style="rounded=0;whiteSpace=wrap;html=1;fontSize=16;" vertex="1" parent="1">
          <mxGeometry x="1088" y="429" width="112" height="1502" as="geometry" />
        </mxCell>
        <mxCell id="eeu2ur5OAnoY-3zIRVY6-23" style="edgeStyle=none;curved=1;rounded=0;orthogonalLoop=1;jettySize=auto;html=1;fontSize=12;startSize=8;endSize=8;" edge="1" parent="1" source="eeu2ur5OAnoY-3zIRVY6-22">
          <mxGeometry relative="1" as="geometry">
            <mxPoint x="730" y="735" as="targetPoint" />
          </mxGeometry>
        </mxCell>
        <mxCell id="eeu2ur5OAnoY-3zIRVY6-22" value="thumbnail" style="rounded=0;whiteSpace=wrap;html=1;fontSize=16;" vertex="1" parent="1">
          <mxGeometry x="502" y="705" width="120" height="60" as="geometry" />
        </mxCell>
        <mxCell id="eeu2ur5OAnoY-3zIRVY6-24" value="S3" style="rounded=0;whiteSpace=wrap;html=1;fontSize=16;" vertex="1" parent="1">
          <mxGeometry x="730" y="710" width="120" height="60" as="geometry" />
        </mxCell>
        <mxCell id="eeu2ur5OAnoY-3zIRVY6-29" style="edgeStyle=none;curved=1;rounded=0;orthogonalLoop=1;jettySize=auto;html=1;exitX=1;exitY=0.5;exitDx=0;exitDy=0;entryX=0;entryY=0.5;entryDx=0;entryDy=0;fontSize=12;startSize=8;endSize=8;" edge="1" parent="1" source="eeu2ur5OAnoY-3zIRVY6-28" target="eeu2ur5OAnoY-3zIRVY6-12">
          <mxGeometry relative="1" as="geometry" />
        </mxCell>
        <mxCell id="eeu2ur5OAnoY-3zIRVY6-28" value="SanityCheck" style="rounded=0;whiteSpace=wrap;html=1;fontSize=16;" vertex="1" parent="1">
          <mxGeometry x="302" y="802" width="120" height="60" as="geometry" />
        </mxCell>
        <mxCell id="eeu2ur5OAnoY-3zIRVY6-35" style="edgeStyle=none;curved=1;rounded=0;orthogonalLoop=1;jettySize=auto;html=1;exitX=1;exitY=0.75;exitDx=0;exitDy=0;fontSize=12;startSize=8;endSize=8;entryX=0;entryY=0.25;entryDx=0;entryDy=0;" edge="1" parent="1" source="eeu2ur5OAnoY-3zIRVY6-30" target="eeu2ur5OAnoY-3zIRVY6-34">
          <mxGeometry relative="1" as="geometry">
            <mxPoint x="487" y="1086" as="targetPoint" />
          </mxGeometry>
        </mxCell>
        <mxCell id="eeu2ur5OAnoY-3zIRVY6-30" value="Video Upload Handler" style="rounded=0;whiteSpace=wrap;html=1;fontSize=16;" vertex="1" parent="1">
          <mxGeometry x="302" y="1008" width="120" height="60" as="geometry" />
        </mxCell>
        <mxCell id="eeu2ur5OAnoY-3zIRVY6-31" style="edgeStyle=none;curved=1;rounded=0;orthogonalLoop=1;jettySize=auto;html=1;exitX=1;exitY=0.25;exitDx=0;exitDy=0;fontSize=12;startSize=8;endSize=8;" edge="1" parent="1" source="eeu2ur5OAnoY-3zIRVY6-30">
          <mxGeometry relative="1" as="geometry">
            <mxPoint x="1082" y="1023" as="targetPoint" />
          </mxGeometry>
        </mxCell>
        <mxCell id="eeu2ur5OAnoY-3zIRVY6-34" value="Mongo&lt;br&gt;(title,Id,ThumbnailLink,CDN Links,tags,Description,etc)" style="rounded=0;whiteSpace=wrap;html=1;fontSize=16;" vertex="1" parent="1">
          <mxGeometry x="678" y="1041" width="266" height="89" as="geometry" />
        </mxCell>
        <mxCell id="eeu2ur5OAnoY-3zIRVY6-39" value="" style="edgeStyle=none;curved=1;rounded=0;orthogonalLoop=1;jettySize=auto;html=1;fontSize=12;startSize=8;endSize=8;" edge="1" parent="1" source="eeu2ur5OAnoY-3zIRVY6-37" target="eeu2ur5OAnoY-3zIRVY6-38">
          <mxGeometry relative="1" as="geometry" />
        </mxCell>
        <mxCell id="eeu2ur5OAnoY-3zIRVY6-37" value="Elastic Search" style="rounded=0;whiteSpace=wrap;html=1;fontSize=16;" vertex="1" parent="1">
          <mxGeometry x="529" y="1205" width="120" height="60" as="geometry" />
        </mxCell>
        <mxCell id="eeu2ur5OAnoY-3zIRVY6-38" value="Search Service" style="rounded=0;whiteSpace=wrap;html=1;fontSize=16;" vertex="1" parent="1">
          <mxGeometry x="320" y="1209" width="120" height="60" as="geometry" />
        </mxCell>
        <mxCell id="eeu2ur5OAnoY-3zIRVY6-42" style="edgeStyle=none;curved=1;rounded=0;orthogonalLoop=1;jettySize=auto;html=1;entryX=1;entryY=0.5;entryDx=0;entryDy=0;fontSize=12;startSize=8;endSize=8;" edge="1" parent="1" source="eeu2ur5OAnoY-3zIRVY6-40" target="eeu2ur5OAnoY-3zIRVY6-37">
          <mxGeometry relative="1" as="geometry" />
        </mxCell>
        <mxCell id="eeu2ur5OAnoY-3zIRVY6-40" value="Content Uploader Service" style="rounded=0;whiteSpace=wrap;html=1;fontSize=16;" vertex="1" parent="1">
          <mxGeometry x="751" y="1205" width="120" height="60" as="geometry" />
        </mxCell>
        <mxCell id="eeu2ur5OAnoY-3zIRVY6-50" style="edgeStyle=none;curved=1;rounded=0;orthogonalLoop=1;jettySize=auto;html=1;fontSize=12;startSize=8;endSize=8;entryX=0;entryY=0.5;entryDx=0;entryDy=0;" edge="1" parent="1" source="eeu2ur5OAnoY-3zIRVY6-46" target="eeu2ur5OAnoY-3zIRVY6-49">
          <mxGeometry relative="1" as="geometry">
            <mxPoint x="683" y="1367" as="targetPoint" />
          </mxGeometry>
        </mxCell>
        <mxCell id="eeu2ur5OAnoY-3zIRVY6-54" style="edgeStyle=none;curved=1;rounded=0;orthogonalLoop=1;jettySize=auto;html=1;entryX=0;entryY=0.5;entryDx=0;entryDy=0;fontSize=12;startSize=8;endSize=8;" edge="1" parent="1" source="eeu2ur5OAnoY-3zIRVY6-46" target="eeu2ur5OAnoY-3zIRVY6-53">
          <mxGeometry relative="1" as="geometry" />
        </mxCell>
        <mxCell id="eeu2ur5OAnoY-3zIRVY6-46" value="like, comment" style="rounded=0;whiteSpace=wrap;html=1;fontSize=16;" vertex="1" parent="1">
          <mxGeometry x="505" y="1342" width="120" height="60" as="geometry" />
        </mxCell>
        <mxCell id="eeu2ur5OAnoY-3zIRVY6-51" style="edgeStyle=none;curved=1;rounded=0;orthogonalLoop=1;jettySize=auto;html=1;fontSize=12;startSize=8;endSize=8;" edge="1" parent="1" source="eeu2ur5OAnoY-3zIRVY6-47">
          <mxGeometry relative="1" as="geometry">
            <mxPoint x="765.75" y="1562" as="targetPoint" />
          </mxGeometry>
        </mxCell>
        <mxCell id="eeu2ur5OAnoY-3zIRVY6-47" value="subscribe" style="rounded=0;whiteSpace=wrap;html=1;fontSize=16;" vertex="1" parent="1">
          <mxGeometry x="509" y="1532" width="120" height="60" as="geometry" />
        </mxCell>
        <mxCell id="eeu2ur5OAnoY-3zIRVY6-49" value="cassandra(&lt;br&gt;comment,&lt;br&gt;parent Id,likes)" style="rounded=0;whiteSpace=wrap;html=1;fontSize=16;" vertex="1" parent="1">
          <mxGeometry x="760" y="1324" width="120" height="60" as="geometry" />
        </mxCell>
        <mxCell id="eeu2ur5OAnoY-3zIRVY6-52" value="cassandra&lt;br&gt;(subscriber Id, creator id)" style="rounded=0;whiteSpace=wrap;html=1;fontSize=16;" vertex="1" parent="1">
          <mxGeometry x="764" y="1499" width="120" height="143" as="geometry" />
        </mxCell>
        <mxCell id="eeu2ur5OAnoY-3zIRVY6-53" value="redis" style="rounded=0;whiteSpace=wrap;html=1;fontSize=16;" vertex="1" parent="1">
          <mxGeometry x="758" y="1412" width="120" height="60" as="geometry" />
        </mxCell>
        <mxCell id="eeu2ur5OAnoY-3zIRVY6-56" style="edgeStyle=none;curved=1;rounded=0;orthogonalLoop=1;jettySize=auto;html=1;fontSize=12;startSize=8;endSize=8;" edge="1" parent="1" source="eeu2ur5OAnoY-3zIRVY6-55">
          <mxGeometry relative="1" as="geometry">
            <mxPoint x="504.14285714285734" y="1379.857142857143" as="targetPoint" />
          </mxGeometry>
        </mxCell>
        <mxCell id="eeu2ur5OAnoY-3zIRVY6-57" style="edgeStyle=none;curved=1;rounded=0;orthogonalLoop=1;jettySize=auto;html=1;entryX=0;entryY=0.75;entryDx=0;entryDy=0;fontSize=12;startSize=8;endSize=8;" edge="1" parent="1" source="eeu2ur5OAnoY-3zIRVY6-55" target="eeu2ur5OAnoY-3zIRVY6-47">
          <mxGeometry relative="1" as="geometry" />
        </mxCell>
        <mxCell id="eeu2ur5OAnoY-3zIRVY6-55" value="User Activity" style="rounded=0;whiteSpace=wrap;html=1;fontSize=16;" vertex="1" parent="1">
          <mxGeometry x="294" y="1414" width="120" height="60" as="geometry" />
        </mxCell>
        <mxCell id="eeu2ur5OAnoY-3zIRVY6-59" value="" style="edgeStyle=none;curved=1;rounded=0;orthogonalLoop=1;jettySize=auto;html=1;fontSize=12;startSize=8;endSize=8;" edge="1" parent="1" source="eeu2ur5OAnoY-3zIRVY6-55">
          <mxGeometry relative="1" as="geometry">
            <mxPoint x="541.2030075187972" y="1680" as="targetPoint" />
            <mxPoint x="375" y="1474" as="sourcePoint" />
          </mxGeometry>
        </mxCell>
        <mxCell id="eeu2ur5OAnoY-3zIRVY6-62" style="edgeStyle=none;curved=1;rounded=0;orthogonalLoop=1;jettySize=auto;html=1;fontSize=12;startSize=8;endSize=8;" edge="1" parent="1" source="eeu2ur5OAnoY-3zIRVY6-61">
          <mxGeometry relative="1" as="geometry">
            <mxPoint x="1084.1428571428573" y="1652.7142857142858" as="targetPoint" />
          </mxGeometry>
        </mxCell>
        <mxCell id="eeu2ur5OAnoY-3zIRVY6-61" value="Redis(video,views)" style="rounded=0;whiteSpace=wrap;html=1;fontSize=16;" vertex="1" parent="1">
          <mxGeometry x="541" y="1658" width="190" height="64" as="geometry" />
        </mxCell>
        <mxCell id="eeu2ur5OAnoY-3zIRVY6-64" value="Notification" style="rounded=0;whiteSpace=wrap;html=1;fontSize=16;" vertex="1" parent="1">
          <mxGeometry x="1373" y="729" width="120" height="60" as="geometry" />
        </mxCell>
        <mxCell id="eeu2ur5OAnoY-3zIRVY6-68" style="edgeStyle=none;curved=1;rounded=0;orthogonalLoop=1;jettySize=auto;html=1;fontSize=12;startSize=8;endSize=8;" edge="1" parent="1" source="eeu2ur5OAnoY-3zIRVY6-65" target="eeu2ur5OAnoY-3zIRVY6-67">
          <mxGeometry relative="1" as="geometry" />
        </mxCell>
        <mxCell id="eeu2ur5OAnoY-3zIRVY6-65" value="Analytics" style="rounded=0;whiteSpace=wrap;html=1;fontSize=16;" vertex="1" parent="1">
          <mxGeometry x="1433" y="870" width="72" height="60" as="geometry" />
        </mxCell>
        <mxCell id="eeu2ur5OAnoY-3zIRVY6-70" style="edgeStyle=none;curved=1;rounded=0;orthogonalLoop=1;jettySize=auto;html=1;fontSize=12;startSize=8;endSize=8;" edge="1" parent="1" source="eeu2ur5OAnoY-3zIRVY6-67" target="eeu2ur5OAnoY-3zIRVY6-69">
          <mxGeometry relative="1" as="geometry" />
        </mxCell>
        <mxCell id="eeu2ur5OAnoY-3zIRVY6-67" value="Spark Streaming" style="rounded=0;whiteSpace=wrap;html=1;fontSize=16;" vertex="1" parent="1">
          <mxGeometry x="1423" y="995" width="120" height="60" as="geometry" />
        </mxCell>
        <mxCell id="eeu2ur5OAnoY-3zIRVY6-69" value="Hadoop" style="rounded=0;whiteSpace=wrap;html=1;fontSize=16;" vertex="1" parent="1">
          <mxGeometry x="1612" y="995" width="120" height="60" as="geometry" />
        </mxCell>
        <mxCell id="eeu2ur5OAnoY-3zIRVY6-78" style="edgeStyle=none;curved=1;rounded=0;orthogonalLoop=1;jettySize=auto;html=1;fontSize=12;startSize=8;endSize=8;" edge="1" parent="1" source="eeu2ur5OAnoY-3zIRVY6-73" target="eeu2ur5OAnoY-3zIRVY6-77">
          <mxGeometry relative="1" as="geometry" />
        </mxCell>
        <mxCell id="eeu2ur5OAnoY-3zIRVY6-73" value="Redis" style="rounded=0;whiteSpace=wrap;html=1;fontSize=16;" vertex="1" parent="1">
          <mxGeometry x="649" y="1834" width="120" height="60" as="geometry" />
        </mxCell>
        <mxCell id="eeu2ur5OAnoY-3zIRVY6-76" style="edgeStyle=none;curved=1;rounded=0;orthogonalLoop=1;jettySize=auto;html=1;entryX=1;entryY=0.5;entryDx=0;entryDy=0;fontSize=12;startSize=8;endSize=8;" edge="1" parent="1" source="eeu2ur5OAnoY-3zIRVY6-75" target="eeu2ur5OAnoY-3zIRVY6-73">
          <mxGeometry relative="1" as="geometry" />
        </mxCell>
        <mxCell id="eeu2ur5OAnoY-3zIRVY6-75" value="time line Creator" style="rounded=0;whiteSpace=wrap;html=1;fontSize=16;" vertex="1" parent="1">
          <mxGeometry x="828" y="1838" width="120" height="60" as="geometry" />
        </mxCell>
        <mxCell id="eeu2ur5OAnoY-3zIRVY6-77" value="home page" style="rounded=0;whiteSpace=wrap;html=1;fontSize=16;" vertex="1" parent="1">
          <mxGeometry x="353" y="1838" width="120" height="60" as="geometry" />
        </mxCell>
        <mxCell id="eeu2ur5OAnoY-3zIRVY6-79" value="" style="edgeStyle=none;orthogonalLoop=1;jettySize=auto;html=1;rounded=0;fontSize=12;startSize=8;endSize=8;curved=1;entryX=0;entryY=0.25;entryDx=0;entryDy=0;" edge="1" parent="1" target="eeu2ur5OAnoY-3zIRVY6-77">
          <mxGeometry width="140" relative="1" as="geometry">
            <mxPoint x="202" y="1860" as="sourcePoint" />
            <mxPoint x="342" y="1860" as="targetPoint" />
            <Array as="points" />
          </mxGeometry>
        </mxCell>
        <mxCell id="eeu2ur5OAnoY-3zIRVY6-81" value="" style="edgeStyle=none;curved=1;rounded=0;orthogonalLoop=1;jettySize=auto;html=1;fontSize=12;startSize=8;endSize=8;entryX=1;entryY=0.5;entryDx=0;entryDy=0;" edge="1" parent="1" target="eeu2ur5OAnoY-3zIRVY6-80">
          <mxGeometry relative="1" as="geometry">
            <mxPoint x="1081" y="1769" as="sourcePoint" />
            <mxPoint x="1060" y="1587" as="targetPoint" />
          </mxGeometry>
        </mxCell>
        <mxCell id="eeu2ur5OAnoY-3zIRVY6-84" style="edgeStyle=none;curved=1;rounded=0;orthogonalLoop=1;jettySize=auto;html=1;entryX=1;entryY=0.5;entryDx=0;entryDy=0;fontSize=12;startSize=8;endSize=8;" edge="1" parent="1" source="eeu2ur5OAnoY-3zIRVY6-80" target="eeu2ur5OAnoY-3zIRVY6-83">
          <mxGeometry relative="1" as="geometry" />
        </mxCell>
        <mxCell id="eeu2ur5OAnoY-3zIRVY6-80" value="famous User videos" style="rounded=0;whiteSpace=wrap;html=1;fontSize=16;" vertex="1" parent="1">
          <mxGeometry x="842" y="1732" width="120" height="60" as="geometry" />
        </mxCell>
        <mxCell id="eeu2ur5OAnoY-3zIRVY6-85" style="edgeStyle=none;curved=1;rounded=0;orthogonalLoop=1;jettySize=auto;html=1;entryX=1;entryY=0.25;entryDx=0;entryDy=0;fontSize=12;startSize=8;endSize=8;" edge="1" parent="1" source="eeu2ur5OAnoY-3zIRVY6-83" target="eeu2ur5OAnoY-3zIRVY6-77">
          <mxGeometry relative="1" as="geometry" />
        </mxCell>
        <mxCell id="eeu2ur5OAnoY-3zIRVY6-83" value="Redis" style="rounded=0;whiteSpace=wrap;html=1;fontSize=16;" vertex="1" parent="1">
          <mxGeometry x="620" y="1748" width="120" height="60" as="geometry" />
        </mxCell>
        <mxCell id="eeu2ur5OAnoY-3zIRVY6-86" value="1)client - devices -bandwidth decided at runtime (Adaptive Bit rate streaming)&lt;br&gt;2)users&lt;br&gt;3)production houses" style="rounded=0;whiteSpace=wrap;html=1;fontSize=16;" vertex="1" parent="1">
          <mxGeometry x="-325" y="1209" width="323" height="96" as="geometry" />
        </mxCell>
      </root>
    </mxGraphModel>
  </diagram>
  <diagram id="wvrw2RcXi39YXhzJzeRa" name="Youtube CodeKarleDesign">
    <mxGraphModel dx="3805" dy="2770" grid="0" gridSize="10" guides="1" tooltips="1" connect="1" arrows="1" fold="1" page="0" pageScale="1" pageWidth="827" pageHeight="1169" math="0" shadow="0">
      <root>
        <mxCell id="0" />
        <mxCell id="1" parent="0" />
        <mxCell id="iDF_dh7e3JIrWHB6E-d9-1" value="Asset Onboarding Service-&lt;br&gt;&lt;br&gt;1)uploading from local file- just have a upload button&lt;br&gt;&lt;br&gt;2)sftp server running from their side- for very high definition and large files (the link to the authorized SFTP server is provided to the asset on boarding service)" style="rounded=0;whiteSpace=wrap;html=1;fontSize=16;" vertex="1" parent="1">
          <mxGeometry x="-273" y="35" width="339" height="202" as="geometry" />
        </mxCell>
        <mxCell id="iDF_dh7e3JIrWHB6E-d9-8" style="edgeStyle=none;curved=1;rounded=0;orthogonalLoop=1;jettySize=auto;html=1;fontSize=12;startSize=8;endSize=8;" edge="1" parent="1" source="iDF_dh7e3JIrWHB6E-d9-2">
          <mxGeometry relative="1" as="geometry">
            <mxPoint x="876" y="63" as="targetPoint" />
          </mxGeometry>
        </mxCell>
        <mxCell id="iDF_dh7e3JIrWHB6E-d9-10" style="edgeStyle=none;curved=1;rounded=0;orthogonalLoop=1;jettySize=auto;html=1;exitX=1;exitY=0.25;exitDx=0;exitDy=0;fontSize=12;startSize=8;endSize=8;" edge="1" parent="1" source="iDF_dh7e3JIrWHB6E-d9-2">
          <mxGeometry relative="1" as="geometry">
            <mxPoint x="805" y="-53" as="targetPoint" />
          </mxGeometry>
        </mxCell>
        <mxCell id="iDF_dh7e3JIrWHB6E-d9-12" style="edgeStyle=none;curved=1;rounded=0;orthogonalLoop=1;jettySize=auto;html=1;exitX=1;exitY=0.75;exitDx=0;exitDy=0;fontSize=12;startSize=8;endSize=8;" edge="1" parent="1" source="iDF_dh7e3JIrWHB6E-d9-2">
          <mxGeometry relative="1" as="geometry">
            <mxPoint x="1076" y="162" as="targetPoint" />
          </mxGeometry>
        </mxCell>
        <mxCell id="iDF_dh7e3JIrWHB6E-d9-2" value="Asset OnBoarding Service" style="rounded=0;whiteSpace=wrap;html=1;fontSize=16;" vertex="1" parent="1">
          <mxGeometry x="596" y="33" width="120" height="60" as="geometry" />
        </mxCell>
        <mxCell id="Uq5Zk5Ma0l-407VUdTBj-4" style="edgeStyle=none;curved=1;rounded=0;orthogonalLoop=1;jettySize=auto;html=1;exitX=1;exitY=0.75;exitDx=0;exitDy=0;fontSize=12;startSize=8;endSize=8;entryX=0.008;entryY=0.5;entryDx=0;entryDy=0;entryPerimeter=0;" edge="1" parent="1" source="iDF_dh7e3JIrWHB6E-d9-4" target="Uq5Zk5Ma0l-407VUdTBj-5">
          <mxGeometry relative="1" as="geometry">
            <mxPoint x="637" y="846" as="targetPoint" />
          </mxGeometry>
        </mxCell>
        <mxCell id="Uq5Zk5Ma0l-407VUdTBj-21" style="edgeStyle=none;curved=1;rounded=0;orthogonalLoop=1;jettySize=auto;html=1;entryX=0;entryY=0.5;entryDx=0;entryDy=0;fontSize=12;startSize=8;endSize=8;" edge="1" parent="1" target="Uq5Zk5Ma0l-407VUdTBj-20">
          <mxGeometry relative="1" as="geometry">
            <mxPoint x="545" y="863" as="sourcePoint" />
          </mxGeometry>
        </mxCell>
        <mxCell id="Uq5Zk5Ma0l-407VUdTBj-23" style="edgeStyle=none;curved=1;rounded=0;orthogonalLoop=1;jettySize=auto;html=1;entryX=0;entryY=0.5;entryDx=0;entryDy=0;fontSize=12;startSize=8;endSize=8;" edge="1" parent="1" target="Uq5Zk5Ma0l-407VUdTBj-1">
          <mxGeometry relative="1" as="geometry">
            <mxPoint x="541" y="1073" as="sourcePoint" />
          </mxGeometry>
        </mxCell>
        <mxCell id="iDF_dh7e3JIrWHB6E-d9-4" value="LB" style="rounded=0;whiteSpace=wrap;html=1;fontSize=16;" vertex="1" parent="1">
          <mxGeometry x="411" y="-13" width="120" height="1145" as="geometry" />
        </mxCell>
        <mxCell id="iDF_dh7e3JIrWHB6E-d9-5" value="UI for Production Houses" style="rounded=0;whiteSpace=wrap;html=1;fontSize=16;" vertex="1" parent="1">
          <mxGeometry x="210" y="35" width="120" height="60" as="geometry" />
        </mxCell>
        <mxCell id="iDF_dh7e3JIrWHB6E-d9-6" style="edgeStyle=none;curved=1;rounded=0;orthogonalLoop=1;jettySize=auto;html=1;fontSize=12;startSize=8;endSize=8;" edge="1" parent="1" source="iDF_dh7e3JIrWHB6E-d9-5">
          <mxGeometry relative="1" as="geometry">
            <mxPoint x="408" y="65" as="targetPoint" />
          </mxGeometry>
        </mxCell>
        <mxCell id="iDF_dh7e3JIrWHB6E-d9-7" style="edgeStyle=none;curved=1;rounded=0;orthogonalLoop=1;jettySize=auto;html=1;entryX=0;entryY=0.367;entryDx=0;entryDy=0;entryPerimeter=0;fontSize=12;startSize=8;endSize=8;exitX=1;exitY=0.066;exitDx=0;exitDy=0;exitPerimeter=0;" edge="1" parent="1" source="iDF_dh7e3JIrWHB6E-d9-4" target="iDF_dh7e3JIrWHB6E-d9-2">
          <mxGeometry relative="1" as="geometry">
            <mxPoint x="535" y="282" as="sourcePoint" />
          </mxGeometry>
        </mxCell>
        <mxCell id="iDF_dh7e3JIrWHB6E-d9-9" value="Amazon S3&lt;br&gt;(file /asset storage soln)" style="rounded=0;whiteSpace=wrap;html=1;fontSize=16;" vertex="1" parent="1">
          <mxGeometry x="871" y="35" width="120" height="60" as="geometry" />
        </mxCell>
        <mxCell id="iDF_dh7e3JIrWHB6E-d9-11" value="Cassandra??? (all details related to a video- id,title,uploader,&lt;br&gt;thumbnails,&lt;br&gt;tags,description)" style="rounded=0;whiteSpace=wrap;html=1;fontSize=16;" vertex="1" parent="1">
          <mxGeometry x="806" y="-107" width="269" height="106" as="geometry" />
        </mxCell>
        <mxCell id="b7v-rSZVTev-dKhUlk3I-17" style="edgeStyle=none;curved=1;rounded=0;orthogonalLoop=1;jettySize=auto;html=1;fontSize=12;startSize=8;endSize=8;entryX=0;entryY=0.25;entryDx=0;entryDy=0;" edge="1" parent="1" source="iDF_dh7e3JIrWHB6E-d9-13" target="b7v-rSZVTev-dKhUlk3I-18">
          <mxGeometry relative="1" as="geometry">
            <mxPoint x="1232.5282040550596" y="266.9999999999998" as="targetPoint" />
          </mxGeometry>
        </mxCell>
        <mxCell id="b7v-rSZVTev-dKhUlk3I-19" style="edgeStyle=none;curved=1;rounded=0;orthogonalLoop=1;jettySize=auto;html=1;fontSize=12;startSize=8;endSize=8;exitX=1.018;exitY=0.188;exitDx=0;exitDy=0;exitPerimeter=0;" edge="1" parent="1" source="iDF_dh7e3JIrWHB6E-d9-13">
          <mxGeometry relative="1" as="geometry">
            <mxPoint x="1708" y="275" as="targetPoint" />
          </mxGeometry>
        </mxCell>
        <mxCell id="b7v-rSZVTev-dKhUlk3I-22" style="edgeStyle=none;curved=1;rounded=0;orthogonalLoop=1;jettySize=auto;html=1;fontSize=12;startSize=8;endSize=8;" edge="1" parent="1" source="iDF_dh7e3JIrWHB6E-d9-13">
          <mxGeometry relative="1" as="geometry">
            <mxPoint x="1243.929850260417" y="451.140360514323" as="targetPoint" />
          </mxGeometry>
        </mxCell>
        <mxCell id="Uq5Zk5Ma0l-407VUdTBj-46" style="edgeStyle=none;curved=1;rounded=0;orthogonalLoop=1;jettySize=auto;html=1;exitX=1;exitY=0.25;exitDx=0;exitDy=0;entryX=0.75;entryY=0;entryDx=0;entryDy=0;fontSize=12;startSize=8;endSize=8;" edge="1" parent="1" source="iDF_dh7e3JIrWHB6E-d9-13" target="Uq5Zk5Ma0l-407VUdTBj-45">
          <mxGeometry relative="1" as="geometry">
            <Array as="points">
              <mxPoint x="1407" y="210" />
              <mxPoint x="1595" y="285" />
            </Array>
          </mxGeometry>
        </mxCell>
        <mxCell id="Uq5Zk5Ma0l-407VUdTBj-48" style="edgeStyle=none;curved=1;rounded=0;orthogonalLoop=1;jettySize=auto;html=1;exitX=0.25;exitY=1;exitDx=0;exitDy=0;fontSize=12;startSize=8;endSize=8;" edge="1" parent="1" source="iDF_dh7e3JIrWHB6E-d9-13">
          <mxGeometry relative="1" as="geometry">
            <mxPoint x="939.972127278646" y="1694.6111246744792" as="targetPoint" />
            <Array as="points">
              <mxPoint x="1065" y="530" />
              <mxPoint x="1102" y="716" />
              <mxPoint x="1113" y="1053" />
              <mxPoint x="1102" y="1275" />
              <mxPoint x="1003" y="1300" />
              <mxPoint x="932" y="1383" />
            </Array>
          </mxGeometry>
        </mxCell>
        <mxCell id="Uq5Zk5Ma0l-407VUdTBj-63" style="edgeStyle=none;curved=1;rounded=0;orthogonalLoop=1;jettySize=auto;html=1;exitX=0.75;exitY=0;exitDx=0;exitDy=0;fontSize=12;startSize=8;endSize=8;" edge="1" parent="1" source="iDF_dh7e3JIrWHB6E-d9-13">
          <mxGeometry relative="1" as="geometry">
            <mxPoint x="1527.9904597355767" y="96.51915564903834" as="targetPoint" />
          </mxGeometry>
        </mxCell>
        <mxCell id="iDF_dh7e3JIrWHB6E-d9-13" value="KAFKA" style="rounded=0;whiteSpace=wrap;html=1;fontSize=16;" vertex="1" parent="1">
          <mxGeometry x="1080" y="115" width="113" height="253" as="geometry" />
        </mxCell>
        <mxCell id="b7v-rSZVTev-dKhUlk3I-15" style="edgeStyle=none;curved=1;rounded=0;orthogonalLoop=1;jettySize=auto;html=1;entryX=0;entryY=0.5;entryDx=0;entryDy=0;fontSize=12;startSize=8;endSize=8;" edge="1" parent="1" source="b7v-rSZVTev-dKhUlk3I-1" target="b7v-rSZVTev-dKhUlk3I-14">
          <mxGeometry relative="1" as="geometry" />
        </mxCell>
        <mxCell id="b7v-rSZVTev-dKhUlk3I-1" value="Content Processor Service&lt;br&gt;&lt;br&gt;&lt;br&gt;&lt;br&gt;&lt;br&gt;&lt;br&gt;&lt;br&gt;&lt;br&gt;&lt;br&gt;&lt;br&gt;&lt;br&gt;&lt;br&gt;&lt;br&gt;&lt;br&gt;&lt;br&gt;&lt;br&gt;&lt;br&gt;&lt;br&gt;&lt;br&gt;&lt;br&gt;&lt;br&gt;&lt;br&gt;&lt;br&gt;&lt;br&gt;&lt;br&gt;&lt;br&gt;&lt;br&gt;" style="rounded=0;whiteSpace=wrap;html=1;fontSize=16;" vertex="1" parent="1">
          <mxGeometry x="740" y="184" width="229" height="562" as="geometry" />
        </mxCell>
        <mxCell id="b7v-rSZVTev-dKhUlk3I-5" style="edgeStyle=none;curved=1;rounded=0;orthogonalLoop=1;jettySize=auto;html=1;entryX=0.5;entryY=0;entryDx=0;entryDy=0;fontSize=12;startSize=8;endSize=8;" edge="1" parent="1" source="b7v-rSZVTev-dKhUlk3I-3" target="b7v-rSZVTev-dKhUlk3I-4">
          <mxGeometry relative="1" as="geometry" />
        </mxCell>
        <mxCell id="b7v-rSZVTev-dKhUlk3I-3" value="Chunker&lt;br&gt;(divide videos into chunks for parallelisation)" style="rounded=0;whiteSpace=wrap;html=1;fontSize=16;" vertex="1" parent="1">
          <mxGeometry x="748" y="239" width="213" height="60" as="geometry" />
        </mxCell>
        <mxCell id="b7v-rSZVTev-dKhUlk3I-7" style="edgeStyle=none;curved=1;rounded=0;orthogonalLoop=1;jettySize=auto;html=1;entryX=0.5;entryY=0;entryDx=0;entryDy=0;fontSize=12;startSize=8;endSize=8;" edge="1" parent="1" source="b7v-rSZVTev-dKhUlk3I-4" target="b7v-rSZVTev-dKhUlk3I-6">
          <mxGeometry relative="1" as="geometry" />
        </mxCell>
        <mxCell id="b7v-rSZVTev-dKhUlk3I-4" value="Content Filter&lt;br&gt;(piracy,nudity,other legal issues)" style="rounded=0;whiteSpace=wrap;html=1;fontSize=16;" vertex="1" parent="1">
          <mxGeometry x="771" y="319" width="167" height="65" as="geometry" />
        </mxCell>
        <mxCell id="b7v-rSZVTev-dKhUlk3I-9" style="edgeStyle=none;curved=1;rounded=0;orthogonalLoop=1;jettySize=auto;html=1;entryX=0.5;entryY=0;entryDx=0;entryDy=0;fontSize=12;startSize=8;endSize=8;" edge="1" parent="1" source="b7v-rSZVTev-dKhUlk3I-6" target="b7v-rSZVTev-dKhUlk3I-8">
          <mxGeometry relative="1" as="geometry" />
        </mxCell>
        <mxCell id="b7v-rSZVTev-dKhUlk3I-6" value="Content Tagger&lt;br&gt;-thumbnails,&lt;br&gt;tags,classifier" style="rounded=0;whiteSpace=wrap;html=1;fontSize=16;" vertex="1" parent="1">
          <mxGeometry x="795" y="408" width="120" height="60" as="geometry" />
        </mxCell>
        <mxCell id="b7v-rSZVTev-dKhUlk3I-8" value="Transcoders&lt;br&gt;(formats)" style="rounded=0;whiteSpace=wrap;html=1;fontSize=16;" vertex="1" parent="1">
          <mxGeometry x="794.5" y="501" width="120" height="60" as="geometry" />
        </mxCell>
        <mxCell id="b7v-rSZVTev-dKhUlk3I-13" style="edgeStyle=none;curved=1;rounded=0;orthogonalLoop=1;jettySize=auto;html=1;entryX=0.5;entryY=0;entryDx=0;entryDy=0;fontSize=12;startSize=8;endSize=8;" edge="1" parent="1" source="b7v-rSZVTev-dKhUlk3I-10" target="b7v-rSZVTev-dKhUlk3I-12">
          <mxGeometry relative="1" as="geometry" />
        </mxCell>
        <mxCell id="b7v-rSZVTev-dKhUlk3I-10" value="Quality Converters" style="rounded=0;whiteSpace=wrap;html=1;fontSize=16;" vertex="1" parent="1">
          <mxGeometry x="795" y="588" width="120" height="60" as="geometry" />
        </mxCell>
        <mxCell id="b7v-rSZVTev-dKhUlk3I-11" style="edgeStyle=none;curved=1;rounded=0;orthogonalLoop=1;jettySize=auto;html=1;fontSize=12;startSize=8;endSize=8;" edge="1" parent="1" source="b7v-rSZVTev-dKhUlk3I-8">
          <mxGeometry relative="1" as="geometry">
            <mxPoint x="855" y="586" as="targetPoint" />
          </mxGeometry>
        </mxCell>
        <mxCell id="b7v-rSZVTev-dKhUlk3I-12" value="CDN Uploaders" style="rounded=0;whiteSpace=wrap;html=1;fontSize=16;" vertex="1" parent="1">
          <mxGeometry x="795" y="665" width="120" height="60" as="geometry" />
        </mxCell>
        <mxCell id="b7v-rSZVTev-dKhUlk3I-14" value="CDN" style="rounded=0;whiteSpace=wrap;html=1;fontSize=16;" vertex="1" parent="1">
          <mxGeometry x="1097" y="491" width="120" height="60" as="geometry" />
        </mxCell>
        <mxCell id="b7v-rSZVTev-dKhUlk3I-16" value="" style="endArrow=classic;startArrow=classic;html=1;rounded=0;fontSize=12;startSize=8;endSize=8;edgeStyle=none;curved=1;exitX=1.003;exitY=0.055;exitDx=0;exitDy=0;exitPerimeter=0;entryX=-0.006;entryY=0.329;entryDx=0;entryDy=0;entryPerimeter=0;" edge="1" parent="1" source="b7v-rSZVTev-dKhUlk3I-1" target="iDF_dh7e3JIrWHB6E-d9-13">
          <mxGeometry width="50" height="50" relative="1" as="geometry">
            <mxPoint x="994" y="263" as="sourcePoint" />
            <mxPoint x="1069" y="221" as="targetPoint" />
          </mxGeometry>
        </mxCell>
        <mxCell id="b7v-rSZVTev-dKhUlk3I-18" value="spark Streaming&lt;br&gt;(all the tags from the chunks are aggregated as tags for the movie)&lt;br&gt;(other aggregation steps could also be taken)" style="rounded=0;whiteSpace=wrap;html=1;fontSize=16;" vertex="1" parent="1">
          <mxGeometry x="1241" y="239" width="202" height="129" as="geometry" />
        </mxCell>
        <mxCell id="Uq5Zk5Ma0l-407VUdTBj-9" style="edgeStyle=none;curved=1;rounded=0;orthogonalLoop=1;jettySize=auto;html=1;exitX=1;exitY=0.5;exitDx=0;exitDy=0;entryX=1;entryY=0.5;entryDx=0;entryDy=0;fontSize=12;startSize=8;endSize=8;" edge="1" parent="1" source="b7v-rSZVTev-dKhUlk3I-20" target="Uq5Zk5Ma0l-407VUdTBj-5">
          <mxGeometry relative="1" as="geometry" />
        </mxCell>
        <mxCell id="b7v-rSZVTev-dKhUlk3I-20" value="Asset Service&lt;br&gt;(stores chunks realed information in cassandra)" style="rounded=0;whiteSpace=wrap;html=1;fontSize=16;" vertex="1" parent="1">
          <mxGeometry x="1720" y="245" width="132" height="91" as="geometry" />
        </mxCell>
        <mxCell id="b7v-rSZVTev-dKhUlk3I-23" value="notification service" style="rounded=0;whiteSpace=wrap;html=1;fontSize=16;" vertex="1" parent="1">
          <mxGeometry x="1251" y="435" width="120" height="60" as="geometry" />
        </mxCell>
        <mxCell id="Uq5Zk5Ma0l-407VUdTBj-24" style="edgeStyle=none;curved=1;rounded=0;orthogonalLoop=1;jettySize=auto;html=1;fontSize=12;startSize=8;endSize=8;" edge="1" parent="1" source="Uq5Zk5Ma0l-407VUdTBj-1">
          <mxGeometry relative="1" as="geometry">
            <mxPoint x="1146" y="1137" as="targetPoint" />
          </mxGeometry>
        </mxCell>
        <mxCell id="Uq5Zk5Ma0l-407VUdTBj-30" style="edgeStyle=none;curved=1;rounded=0;orthogonalLoop=1;jettySize=auto;html=1;fontSize=12;startSize=8;endSize=8;entryX=0.5;entryY=1;entryDx=0;entryDy=0;" edge="1" parent="1" source="Uq5Zk5Ma0l-407VUdTBj-1" target="iDF_dh7e3JIrWHB6E-d9-13">
          <mxGeometry relative="1" as="geometry">
            <mxPoint x="1072" y="330" as="targetPoint" />
            <Array as="points">
              <mxPoint x="1380" y="951" />
              <mxPoint x="1448" y="860" />
              <mxPoint x="1072" y="703" />
              <mxPoint x="1411" y="783" />
              <mxPoint x="1297" y="651" />
              <mxPoint x="1271" y="585" />
              <mxPoint x="1331" y="528" />
              <mxPoint x="1225" y="485" />
            </Array>
          </mxGeometry>
        </mxCell>
        <mxCell id="Uq5Zk5Ma0l-407VUdTBj-55" style="edgeStyle=none;curved=1;rounded=0;orthogonalLoop=1;jettySize=auto;html=1;entryX=0.5;entryY=0;entryDx=0;entryDy=0;fontSize=12;startSize=8;endSize=8;" edge="1" parent="1" source="Uq5Zk5Ma0l-407VUdTBj-1" target="Uq5Zk5Ma0l-407VUdTBj-35">
          <mxGeometry relative="1" as="geometry" />
        </mxCell>
        <mxCell id="Uq5Zk5Ma0l-407VUdTBj-1" value="User Service" style="rounded=0;whiteSpace=wrap;html=1;fontSize=16;" vertex="1" parent="1">
          <mxGeometry x="716" y="1107" width="120" height="60" as="geometry" />
        </mxCell>
        <mxCell id="Uq5Zk5Ma0l-407VUdTBj-2" value="User Device Playing Video" style="rounded=0;whiteSpace=wrap;html=1;fontSize=16;" vertex="1" parent="1">
          <mxGeometry x="66" y="817" width="120" height="60" as="geometry" />
        </mxCell>
        <mxCell id="Uq5Zk5Ma0l-407VUdTBj-3" style="edgeStyle=none;curved=1;rounded=0;orthogonalLoop=1;jettySize=auto;html=1;entryX=-0.036;entryY=0.742;entryDx=0;entryDy=0;entryPerimeter=0;fontSize=12;startSize=8;endSize=8;" edge="1" parent="1" source="Uq5Zk5Ma0l-407VUdTBj-2" target="iDF_dh7e3JIrWHB6E-d9-4">
          <mxGeometry relative="1" as="geometry" />
        </mxCell>
        <mxCell id="Uq5Zk5Ma0l-407VUdTBj-14" style="edgeStyle=none;curved=1;rounded=0;orthogonalLoop=1;jettySize=auto;html=1;entryX=1;entryY=0.5;entryDx=0;entryDy=0;fontSize=12;startSize=8;endSize=8;" edge="1" parent="1" source="Uq5Zk5Ma0l-407VUdTBj-5" target="Uq5Zk5Ma0l-407VUdTBj-12">
          <mxGeometry relative="1" as="geometry" />
        </mxCell>
        <mxCell id="Uq5Zk5Ma0l-407VUdTBj-15" style="edgeStyle=none;curved=1;rounded=0;orthogonalLoop=1;jettySize=auto;html=1;entryX=1;entryY=0.25;entryDx=0;entryDy=0;fontSize=12;startSize=8;endSize=8;" edge="1" parent="1" source="Uq5Zk5Ma0l-407VUdTBj-5" target="Uq5Zk5Ma0l-407VUdTBj-13">
          <mxGeometry relative="1" as="geometry" />
        </mxCell>
        <mxCell id="Uq5Zk5Ma0l-407VUdTBj-5" value="Device Identification Service (can be used to detect account sharing)" style="whiteSpace=wrap;html=1;fontSize=16;" vertex="1" parent="1">
          <mxGeometry x="689.5" y="799" width="173" height="63" as="geometry" />
        </mxCell>
        <mxCell id="Uq5Zk5Ma0l-407VUdTBj-6" value="login/sign up" style="rounded=0;whiteSpace=wrap;html=1;fontSize=16;" vertex="1" parent="1">
          <mxGeometry x="66" y="965" width="120" height="60" as="geometry" />
        </mxCell>
        <mxCell id="Uq5Zk5Ma0l-407VUdTBj-11" value="" style="endArrow=classic;startArrow=classic;html=1;rounded=0;fontSize=12;startSize=8;endSize=8;edgeStyle=none;curved=1;entryX=0;entryY=0;entryDx=0;entryDy=0;" edge="1" parent="1" target="b7v-rSZVTev-dKhUlk3I-20">
          <mxGeometry width="50" height="50" relative="1" as="geometry">
            <mxPoint x="1075" y="-24" as="sourcePoint" />
            <mxPoint x="1125" y="-74" as="targetPoint" />
          </mxGeometry>
        </mxCell>
        <mxCell id="Uq5Zk5Ma0l-407VUdTBj-16" style="edgeStyle=none;curved=1;rounded=0;orthogonalLoop=1;jettySize=auto;html=1;entryX=0.75;entryY=1;entryDx=0;entryDy=0;fontSize=12;startSize=8;endSize=8;" edge="1" parent="1" source="Uq5Zk5Ma0l-407VUdTBj-12" target="Uq5Zk5Ma0l-407VUdTBj-2">
          <mxGeometry relative="1" as="geometry" />
        </mxCell>
        <mxCell id="Uq5Zk5Ma0l-407VUdTBj-12" value="Main CDN(if the optimised CDN is not working)" style="rounded=0;whiteSpace=wrap;html=1;fontSize=16;" vertex="1" parent="1">
          <mxGeometry x="558" y="963" width="120" height="60" as="geometry" />
        </mxCell>
        <mxCell id="Uq5Zk5Ma0l-407VUdTBj-17" style="edgeStyle=none;curved=1;rounded=0;orthogonalLoop=1;jettySize=auto;html=1;fontSize=12;startSize=8;endSize=8;entryX=1;entryY=0.75;entryDx=0;entryDy=0;" edge="1" parent="1" source="Uq5Zk5Ma0l-407VUdTBj-13" target="Uq5Zk5Ma0l-407VUdTBj-2">
          <mxGeometry relative="1" as="geometry">
            <mxPoint x="184.30769230769215" y="881.6923076923076" as="targetPoint" />
          </mxGeometry>
        </mxCell>
        <mxCell id="Uq5Zk5Ma0l-407VUdTBj-13" value="geographically Optimised CDN&amp;nbsp;" style="whiteSpace=wrap;html=1;fontSize=16;" vertex="1" parent="1">
          <mxGeometry x="558" y="889" width="120" height="60" as="geometry" />
        </mxCell>
        <mxCell id="Uq5Zk5Ma0l-407VUdTBj-22" style="edgeStyle=none;curved=1;rounded=0;orthogonalLoop=1;jettySize=auto;html=1;fontSize=12;startSize=8;endSize=8;" edge="1" parent="1" source="Uq5Zk5Ma0l-407VUdTBj-20">
          <mxGeometry relative="1" as="geometry">
            <mxPoint x="1074" y="297" as="targetPoint" />
            <Array as="points">
              <mxPoint x="1188" y="954" />
              <mxPoint x="1005" y="557" />
            </Array>
          </mxGeometry>
        </mxCell>
        <mxCell id="Uq5Zk5Ma0l-407VUdTBj-20" value="Stream Stats Logger (for average watch time,etc.)" style="whiteSpace=wrap;html=1;fontSize=16;" vertex="1" parent="1">
          <mxGeometry x="874" y="862" width="182" height="107" as="geometry" />
        </mxCell>
        <mxCell id="Uq5Zk5Ma0l-407VUdTBj-29" style="edgeStyle=none;curved=1;rounded=0;orthogonalLoop=1;jettySize=auto;html=1;entryX=1;entryY=0.5;entryDx=0;entryDy=0;fontSize=12;startSize=8;endSize=8;" edge="1" parent="1" source="Uq5Zk5Ma0l-407VUdTBj-25" target="Uq5Zk5Ma0l-407VUdTBj-26">
          <mxGeometry relative="1" as="geometry" />
        </mxCell>
        <mxCell id="Uq5Zk5Ma0l-407VUdTBj-25" value="MySql Cluster" style="whiteSpace=wrap;html=1;fontSize=16;" vertex="1" parent="1">
          <mxGeometry x="1146" y="1107" width="120" height="60" as="geometry" />
        </mxCell>
        <mxCell id="Uq5Zk5Ma0l-407VUdTBj-28" style="edgeStyle=none;curved=1;rounded=0;orthogonalLoop=1;jettySize=auto;html=1;entryX=1;entryY=0.75;entryDx=0;entryDy=0;fontSize=12;startSize=8;endSize=8;" edge="1" parent="1" source="Uq5Zk5Ma0l-407VUdTBj-26" target="Uq5Zk5Ma0l-407VUdTBj-1">
          <mxGeometry relative="1" as="geometry" />
        </mxCell>
        <mxCell id="Uq5Zk5Ma0l-407VUdTBj-26" value="Redis" style="whiteSpace=wrap;html=1;fontSize=16;" vertex="1" parent="1">
          <mxGeometry x="936" y="1178" width="120" height="60" as="geometry" />
        </mxCell>
        <mxCell id="Uq5Zk5Ma0l-407VUdTBj-31" style="edgeStyle=none;curved=1;rounded=0;orthogonalLoop=1;jettySize=auto;html=1;entryX=-0.067;entryY=0.892;entryDx=0;entryDy=0;entryPerimeter=0;fontSize=12;startSize=8;endSize=8;" edge="1" parent="1" source="Uq5Zk5Ma0l-407VUdTBj-6" target="iDF_dh7e3JIrWHB6E-d9-4">
          <mxGeometry relative="1" as="geometry" />
        </mxCell>
        <mxCell id="Uq5Zk5Ma0l-407VUdTBj-32" value="home page" style="whiteSpace=wrap;html=1;fontSize=16;" vertex="1" parent="1">
          <mxGeometry x="-18" y="1280" width="120" height="60" as="geometry" />
        </mxCell>
        <mxCell id="Uq5Zk5Ma0l-407VUdTBj-33" style="edgeStyle=none;curved=1;rounded=0;orthogonalLoop=1;jettySize=auto;html=1;entryX=0;entryY=0.25;entryDx=0;entryDy=0;fontSize=12;startSize=8;endSize=8;" edge="1" parent="1" source="Uq5Zk5Ma0l-407VUdTBj-32" target="Uq5Zk5Ma0l-407VUdTBj-36">
          <mxGeometry relative="1" as="geometry">
            <mxPoint x="100" y="1277" as="sourcePoint" />
            <Array as="points">
              <mxPoint x="248" y="1337" />
            </Array>
          </mxGeometry>
        </mxCell>
        <mxCell id="Uq5Zk5Ma0l-407VUdTBj-34" value="" style="edgeStyle=none;orthogonalLoop=1;jettySize=auto;html=1;rounded=0;fontSize=12;startSize=8;endSize=8;curved=1;exitX=1.019;exitY=0.319;exitDx=0;exitDy=0;exitPerimeter=0;" edge="1" parent="1" source="Uq5Zk5Ma0l-407VUdTBj-36">
          <mxGeometry width="140" relative="1" as="geometry">
            <mxPoint x="544" y="1238" as="sourcePoint" />
            <mxPoint x="774" y="1368" as="targetPoint" />
            <Array as="points" />
          </mxGeometry>
        </mxCell>
        <mxCell id="Uq5Zk5Ma0l-407VUdTBj-42" style="edgeStyle=none;curved=1;rounded=0;orthogonalLoop=1;jettySize=auto;html=1;fontSize=12;startSize=8;endSize=8;" edge="1" parent="1" source="Uq5Zk5Ma0l-407VUdTBj-35">
          <mxGeometry relative="1" as="geometry">
            <mxPoint x="1000.1764705882351" y="1370" as="targetPoint" />
          </mxGeometry>
        </mxCell>
        <mxCell id="Uq5Zk5Ma0l-407VUdTBj-35" value="search" style="whiteSpace=wrap;html=1;fontSize=16;" vertex="1" parent="1">
          <mxGeometry x="778" y="1340" width="120" height="60" as="geometry" />
        </mxCell>
        <mxCell id="Uq5Zk5Ma0l-407VUdTBj-37" style="edgeStyle=none;curved=1;rounded=0;orthogonalLoop=1;jettySize=auto;html=1;fontSize=12;startSize=8;endSize=8;" edge="1" parent="1" source="Uq5Zk5Ma0l-407VUdTBj-36">
          <mxGeometry relative="1" as="geometry">
            <mxPoint x="767" y="1522.5" as="targetPoint" />
          </mxGeometry>
        </mxCell>
        <mxCell id="Uq5Zk5Ma0l-407VUdTBj-40" style="edgeStyle=none;curved=1;rounded=0;orthogonalLoop=1;jettySize=auto;html=1;exitX=1;exitY=0.75;exitDx=0;exitDy=0;fontSize=12;startSize=8;endSize=8;" edge="1" parent="1" source="Uq5Zk5Ma0l-407VUdTBj-36">
          <mxGeometry relative="1" as="geometry">
            <mxPoint x="767" y="1637.5" as="targetPoint" />
          </mxGeometry>
        </mxCell>
        <mxCell id="Uq5Zk5Ma0l-407VUdTBj-36" value="Load Balancer" style="whiteSpace=wrap;html=1;fontSize=16;" vertex="1" parent="1">
          <mxGeometry x="411" y="1291" width="120" height="326" as="geometry" />
        </mxCell>
        <mxCell id="Uq5Zk5Ma0l-407VUdTBj-39" value="home page" style="whiteSpace=wrap;html=1;fontSize=16;" vertex="1" parent="1">
          <mxGeometry x="768" y="1490" width="120" height="60" as="geometry" />
        </mxCell>
        <mxCell id="Uq5Zk5Ma0l-407VUdTBj-47" style="edgeStyle=none;curved=1;rounded=0;orthogonalLoop=1;jettySize=auto;html=1;fontSize=12;startSize=8;endSize=8;entryX=1.017;entryY=0.076;entryDx=0;entryDy=0;entryPerimeter=0;" edge="1" parent="1" source="Uq5Zk5Ma0l-407VUdTBj-41" target="iDF_dh7e3JIrWHB6E-d9-13">
          <mxGeometry relative="1" as="geometry">
            <mxPoint x="1403" y="1501" as="targetPoint" />
            <Array as="points">
              <mxPoint x="3056" y="667" />
            </Array>
          </mxGeometry>
        </mxCell>
        <mxCell id="Uq5Zk5Ma0l-407VUdTBj-41" value="analytics" style="whiteSpace=wrap;html=1;fontSize=16;" vertex="1" parent="1">
          <mxGeometry x="768" y="1613" width="120" height="60" as="geometry" />
        </mxCell>
        <mxCell id="Uq5Zk5Ma0l-407VUdTBj-43" value="Apache Elastic search" style="whiteSpace=wrap;html=1;fontSize=16;" vertex="1" parent="1">
          <mxGeometry x="1003" y="1342" width="120" height="60" as="geometry" />
        </mxCell>
        <mxCell id="Uq5Zk5Ma0l-407VUdTBj-44" value="" style="edgeStyle=none;orthogonalLoop=1;jettySize=auto;html=1;rounded=0;fontSize=12;startSize=8;endSize=8;curved=1;entryX=1;entryY=0.5;entryDx=0;entryDy=0;" edge="1" parent="1" target="Uq5Zk5Ma0l-407VUdTBj-43">
          <mxGeometry width="140" relative="1" as="geometry">
            <mxPoint x="1713" y="860" as="sourcePoint" />
            <mxPoint x="1341" y="1380" as="targetPoint" />
            <Array as="points" />
          </mxGeometry>
        </mxCell>
        <mxCell id="Uq5Zk5Ma0l-407VUdTBj-45" value="search consumer" style="whiteSpace=wrap;html=1;fontSize=16;" vertex="1" parent="1">
          <mxGeometry x="1661" y="806" width="120" height="60" as="geometry" />
        </mxCell>
        <mxCell id="Uq5Zk5Ma0l-407VUdTBj-50" style="edgeStyle=none;curved=1;rounded=0;orthogonalLoop=1;jettySize=auto;html=1;fontSize=12;startSize=8;endSize=8;" edge="1" parent="1" source="Uq5Zk5Ma0l-407VUdTBj-49">
          <mxGeometry relative="1" as="geometry">
            <mxPoint x="1145" y="1733" as="targetPoint" />
          </mxGeometry>
        </mxCell>
        <mxCell id="Uq5Zk5Ma0l-407VUdTBj-49" value="spark streaming service" style="whiteSpace=wrap;html=1;fontSize=16;" vertex="1" parent="1">
          <mxGeometry x="885" y="1697" width="120" height="60" as="geometry" />
        </mxCell>
        <mxCell id="Uq5Zk5Ma0l-407VUdTBj-52" value="" style="edgeStyle=none;curved=1;rounded=0;orthogonalLoop=1;jettySize=auto;html=1;fontSize=12;startSize=8;endSize=8;" edge="1" parent="1" source="Uq5Zk5Ma0l-407VUdTBj-51" target="Uq5Zk5Ma0l-407VUdTBj-49">
          <mxGeometry relative="1" as="geometry" />
        </mxCell>
        <mxCell id="Uq5Zk5Ma0l-407VUdTBj-53" style="edgeStyle=none;curved=1;rounded=0;orthogonalLoop=1;jettySize=auto;html=1;fontSize=12;startSize=8;endSize=8;" edge="1" parent="1" source="Uq5Zk5Ma0l-407VUdTBj-51">
          <mxGeometry relative="1" as="geometry">
            <mxPoint x="1341.666666666667" y="1734" as="targetPoint" />
          </mxGeometry>
        </mxCell>
        <mxCell id="Uq5Zk5Ma0l-407VUdTBj-51" value="Hadop cluster" style="whiteSpace=wrap;html=1;fontSize=16;" vertex="1" parent="1">
          <mxGeometry x="1146" y="1704" width="120" height="60" as="geometry" />
        </mxCell>
        <mxCell id="Uq5Zk5Ma0l-407VUdTBj-56" style="edgeStyle=none;curved=1;rounded=0;orthogonalLoop=1;jettySize=auto;html=1;fontSize=12;startSize=8;endSize=8;" edge="1" parent="1" source="Uq5Zk5Ma0l-407VUdTBj-54">
          <mxGeometry relative="1" as="geometry">
            <mxPoint x="1178" y="381" as="targetPoint" />
            <Array as="points">
              <mxPoint x="1554" y="987" />
            </Array>
          </mxGeometry>
        </mxCell>
        <mxCell id="Uq5Zk5Ma0l-407VUdTBj-61" style="edgeStyle=none;curved=1;rounded=0;orthogonalLoop=1;jettySize=auto;html=1;entryX=1;entryY=0.5;entryDx=0;entryDy=0;fontSize=12;startSize=8;endSize=8;" edge="1" parent="1" source="Uq5Zk5Ma0l-407VUdTBj-54" target="Uq5Zk5Ma0l-407VUdTBj-60">
          <mxGeometry relative="1" as="geometry" />
        </mxCell>
        <mxCell id="Uq5Zk5Ma0l-407VUdTBj-54" value="Apache spark cluster&lt;br&gt;-Recommendation Engine,&lt;br&gt;- Traffic Predictor (cache in local CDN)" style="whiteSpace=wrap;html=1;fontSize=16;" vertex="1" parent="1">
          <mxGeometry x="1344" y="1704" width="299" height="60" as="geometry" />
        </mxCell>
        <mxCell id="Uq5Zk5Ma0l-407VUdTBj-58" value="Answer to Why Cassandra?&lt;br&gt;Cassandra is a database that has a ring of&lt;br&gt;&amp;nbsp;clusters wherein each entity holds part of the total &lt;br&gt;dataand it know all about the data stored in the other entities.&lt;br&gt;Thus adding data in cassandra is very easy as we &lt;br&gt;can just add one more cluster. So it can handle enormous reads and writes.&lt;br&gt;&lt;br&gt;It is very good at key - value searches - like finding &lt;br&gt;all the videos of a particular user and&lt;br&gt;&amp;nbsp;all the chunks of a video or find video data by id.&lt;br&gt;All we need to do is keep the key as the partition key.&lt;br&gt;&lt;br&gt;However it is very bad at typical sql queries like multiple &lt;br&gt;search criterias based on several keys . It is also bad at aggregation &lt;br&gt;queries.&amp;nbsp;&lt;br&gt;&lt;br&gt;In this case our search will happen via elastic search and we&amp;nbsp;&lt;br&gt;only use cassandra for single key based queries." style="text;html=1;align=center;verticalAlign=middle;resizable=0;points=[];autosize=1;strokeColor=none;fillColor=none;fontSize=16;" vertex="1" parent="1">
          <mxGeometry x="885" y="-563" width="553" height="357" as="geometry" />
        </mxCell>
        <mxCell id="Uq5Zk5Ma0l-407VUdTBj-59" value="Types of Analytics that can be done:-&lt;br&gt;1) finding the best thumbnail for a particular type of user&lt;br&gt;based on their clicks on the search result or home page&lt;br&gt;2) user classification based on watch time and search history&lt;br&gt;&amp;nbsp;and also video rating&amp;nbsp;&lt;br&gt;3) collaborative filtering" style="text;html=1;align=center;verticalAlign=middle;resizable=0;points=[];autosize=1;strokeColor=none;fillColor=none;fontSize=16;" vertex="1" parent="1">
          <mxGeometry x="867" y="1775" width="449" height="127" as="geometry" />
        </mxCell>
        <mxCell id="Uq5Zk5Ma0l-407VUdTBj-62" style="edgeStyle=none;curved=1;rounded=0;orthogonalLoop=1;jettySize=auto;html=1;entryX=1;entryY=0.5;entryDx=0;entryDy=0;fontSize=12;startSize=8;endSize=8;" edge="1" parent="1" source="Uq5Zk5Ma0l-407VUdTBj-60" target="Uq5Zk5Ma0l-407VUdTBj-39">
          <mxGeometry relative="1" as="geometry" />
        </mxCell>
        <mxCell id="Uq5Zk5Ma0l-407VUdTBj-60" value="Cassandra" style="whiteSpace=wrap;html=1;fontSize=16;" vertex="1" parent="1">
          <mxGeometry x="1120" y="1500" width="120" height="60" as="geometry" />
        </mxCell>
        <mxCell id="Uq5Zk5Ma0l-407VUdTBj-65" style="edgeStyle=none;curved=1;rounded=0;orthogonalLoop=1;jettySize=auto;html=1;fontSize=12;startSize=8;endSize=8;" edge="1" parent="1" source="Uq5Zk5Ma0l-407VUdTBj-64">
          <mxGeometry relative="1" as="geometry">
            <mxPoint x="1781.230769230769" y="102" as="targetPoint" />
          </mxGeometry>
        </mxCell>
        <mxCell id="Uq5Zk5Ma0l-407VUdTBj-67" style="edgeStyle=none;curved=1;rounded=0;orthogonalLoop=1;jettySize=auto;html=1;exitX=0.75;exitY=0;exitDx=0;exitDy=0;fontSize=12;startSize=8;endSize=8;" edge="1" parent="1" source="Uq5Zk5Ma0l-407VUdTBj-64">
          <mxGeometry relative="1" as="geometry">
            <mxPoint x="1705.8461538461538" y="43.23076923076928" as="targetPoint" />
          </mxGeometry>
        </mxCell>
        <mxCell id="Uq5Zk5Ma0l-407VUdTBj-70" style="edgeStyle=none;curved=1;rounded=0;orthogonalLoop=1;jettySize=auto;html=1;fontSize=12;startSize=8;endSize=8;" edge="1" parent="1" source="Uq5Zk5Ma0l-407VUdTBj-64" target="Uq5Zk5Ma0l-407VUdTBj-69">
          <mxGeometry relative="1" as="geometry" />
        </mxCell>
        <mxCell id="Uq5Zk5Ma0l-407VUdTBj-64" value="CDN Writer" style="whiteSpace=wrap;html=1;fontSize=16;" vertex="1" parent="1">
          <mxGeometry x="1531" y="72" width="120" height="60" as="geometry" />
        </mxCell>
        <mxCell id="Uq5Zk5Ma0l-407VUdTBj-66" value="CDN 1" style="whiteSpace=wrap;html=1;fontSize=16;" vertex="1" parent="1">
          <mxGeometry x="1781" y="75" width="120" height="60" as="geometry" />
        </mxCell>
        <mxCell id="Uq5Zk5Ma0l-407VUdTBj-68" value="CDN 2" style="whiteSpace=wrap;html=1;fontSize=16;" vertex="1" parent="1">
          <mxGeometry x="1703" y="4" width="120" height="60" as="geometry" />
        </mxCell>
        <mxCell id="Uq5Zk5Ma0l-407VUdTBj-69" value="CDN 3" style="whiteSpace=wrap;html=1;fontSize=16;" vertex="1" parent="1">
          <mxGeometry x="1671" y="144" width="120" height="60" as="geometry" />
        </mxCell>
        <mxCell id="Uq5Zk5Ma0l-407VUdTBj-71" value="Writing Data into CDN:-&lt;br&gt;Each local CDN removes unwanted data and add if there are new data to be added in the CDN whenever the data in CDN needs to be updated .&amp;nbsp;&lt;br&gt;Now if the same data is to be written to several locsl CDNs from a global data store like S3 or global CDNs. Then parts of data is sent to each CDN and then the CDNs share the data among themselves in a distributed fashion. As the global CDNs have high traffic always but the Local CDNs will have low traffic at certain times based on that geography like 3AM IST. This distributed file transfer is also how torrent works.&lt;br&gt;&lt;br&gt;these days ISPs Are provided hardware by companies to provide ultra low latency to the users by reducing the no of hops. this also provides extreme high availability. this is called netflix local connect." style="whiteSpace=wrap;html=1;fontSize=16;" vertex="1" parent="1">
          <mxGeometry x="1509" y="-280" width="857" height="229" as="geometry" />
        </mxCell>
      </root>
    </mxGraphModel>
  </diagram>
  <diagram id="BbPg6kKimgWMF9QqBXvx" name="Uber Initial System Design">
    <mxGraphModel dx="1638" dy="716" grid="0" gridSize="10" guides="1" tooltips="1" connect="1" arrows="1" fold="1" page="0" pageScale="1" pageWidth="827" pageHeight="1169" math="0" shadow="0">
      <root>
        <mxCell id="0" />
        <mxCell id="1" parent="0" />
        <mxCell id="LdgI6PPyvYazn0JIoq0--1" value="Functional Requirements :-&lt;br&gt;1) Book a cab&lt;br&gt;2)Search for location&lt;br&gt;3) updates on location of cab&lt;br&gt;4) ETA and Approx Price&lt;br&gt;5) watch history&lt;br&gt;6)payment&amp;nbsp;" style="rounded=0;whiteSpace=wrap;html=1;fontSize=16;" vertex="1" parent="1">
          <mxGeometry x="-40" y="56" width="246" height="193" as="geometry" />
        </mxCell>
        <mxCell id="LdgI6PPyvYazn0JIoq0--2" value="Non Functional Requirements:-&lt;br&gt;1) Low Latency&lt;br&gt;2) High Availability&lt;br&gt;3) Global&lt;br&gt;4) High Consistency (some parts)" style="whiteSpace=wrap;html=1;fontSize=16;" vertex="1" parent="1">
          <mxGeometry x="255" y="71" width="238" height="139" as="geometry" />
        </mxCell>
        <mxCell id="LdgI6PPyvYazn0JIoq0--12" style="edgeStyle=none;curved=1;rounded=0;orthogonalLoop=1;jettySize=auto;html=1;fontSize=12;startSize=8;endSize=8;" edge="1" parent="1" source="LdgI6PPyvYazn0JIoq0--14" target="LdgI6PPyvYazn0JIoq0--16">
          <mxGeometry relative="1" as="geometry">
            <mxPoint x="341" y="547" as="targetPoint" />
          </mxGeometry>
        </mxCell>
        <mxCell id="LdgI6PPyvYazn0JIoq0--13" style="edgeStyle=none;curved=1;rounded=0;orthogonalLoop=1;jettySize=auto;html=1;exitX=1;exitY=0.75;exitDx=0;exitDy=0;fontSize=12;startSize=8;endSize=8;" edge="1" parent="1" source="LdgI6PPyvYazn0JIoq0--18">
          <mxGeometry relative="1" as="geometry">
            <mxPoint x="292" y="642" as="targetPoint" />
          </mxGeometry>
        </mxCell>
        <mxCell id="LdgI6PPyvYazn0JIoq0--14" value="User Service" style="rounded=0;whiteSpace=wrap;html=1;fontSize=16;" vertex="1" parent="1">
          <mxGeometry x="111" y="517" width="120" height="60" as="geometry" />
        </mxCell>
        <mxCell id="LdgI6PPyvYazn0JIoq0--15" style="edgeStyle=none;curved=1;rounded=0;orthogonalLoop=1;jettySize=auto;html=1;fontSize=12;startSize=8;endSize=8;" edge="1" parent="1" source="LdgI6PPyvYazn0JIoq0--16" target="LdgI6PPyvYazn0JIoq0--18">
          <mxGeometry relative="1" as="geometry" />
        </mxCell>
        <mxCell id="LdgI6PPyvYazn0JIoq0--16" value="My sql cluster" style="rounded=0;whiteSpace=wrap;html=1;fontSize=16;" vertex="1" parent="1">
          <mxGeometry x="366" y="514" width="120" height="60" as="geometry" />
        </mxCell>
        <mxCell id="LdgI6PPyvYazn0JIoq0--17" value="" style="edgeStyle=none;curved=1;rounded=0;orthogonalLoop=1;jettySize=auto;html=1;exitX=1;exitY=0.75;exitDx=0;exitDy=0;fontSize=12;startSize=8;endSize=8;" edge="1" parent="1" source="LdgI6PPyvYazn0JIoq0--14" target="LdgI6PPyvYazn0JIoq0--18">
          <mxGeometry relative="1" as="geometry">
            <mxPoint x="292" y="642" as="targetPoint" />
            <mxPoint x="231" y="562" as="sourcePoint" />
          </mxGeometry>
        </mxCell>
        <mxCell id="LdgI6PPyvYazn0JIoq0--18" value="Redis" style="whiteSpace=wrap;html=1;fontSize=16;" vertex="1" parent="1">
          <mxGeometry x="477" y="1483" width="120" height="60" as="geometry" />
        </mxCell>
        <mxCell id="LdgI6PPyvYazn0JIoq0--43" style="edgeStyle=none;curved=1;rounded=0;orthogonalLoop=1;jettySize=auto;html=1;entryX=0;entryY=0.75;entryDx=0;entryDy=0;fontSize=12;startSize=8;endSize=8;exitX=1.046;exitY=0.416;exitDx=0;exitDy=0;exitPerimeter=0;" edge="1" parent="1" source="LdgI6PPyvYazn0JIoq0--19" target="LdgI6PPyvYazn0JIoq0--31">
          <mxGeometry relative="1" as="geometry" />
        </mxCell>
        <mxCell id="LdgI6PPyvYazn0JIoq0--48" style="edgeStyle=none;curved=1;rounded=0;orthogonalLoop=1;jettySize=auto;html=1;exitX=1;exitY=0.25;exitDx=0;exitDy=0;fontSize=12;startSize=8;endSize=8;" edge="1" parent="1" source="LdgI6PPyvYazn0JIoq0--19">
          <mxGeometry relative="1" as="geometry">
            <mxPoint x="88" y="709.6666666666667" as="targetPoint" />
          </mxGeometry>
        </mxCell>
        <mxCell id="LdgI6PPyvYazn0JIoq0--19" value="LB" style="rounded=0;whiteSpace=wrap;html=1;fontSize=16;" vertex="1" parent="1">
          <mxGeometry x="-133" y="498" width="120" height="949" as="geometry" />
        </mxCell>
        <mxCell id="LdgI6PPyvYazn0JIoq0--20" value="Search Cabs Nearby" style="whiteSpace=wrap;html=1;fontSize=16;" vertex="1" parent="1">
          <mxGeometry x="-358" y="656" width="120" height="60" as="geometry" />
        </mxCell>
        <mxCell id="LdgI6PPyvYazn0JIoq0--26" style="edgeStyle=none;curved=1;rounded=0;orthogonalLoop=1;jettySize=auto;html=1;entryX=0;entryY=0.5;entryDx=0;entryDy=0;fontSize=12;startSize=8;endSize=8;" edge="1" parent="1" target="LdgI6PPyvYazn0JIoq0--25">
          <mxGeometry relative="1" as="geometry">
            <mxPoint x="340" y="1105" as="sourcePoint" />
          </mxGeometry>
        </mxCell>
        <mxCell id="LdgI6PPyvYazn0JIoq0--21" value="" style="rounded=0;whiteSpace=wrap;html=1;fontSize=16;" vertex="1" parent="1">
          <mxGeometry x="145" y="1000" width="202" height="274" as="geometry" />
        </mxCell>
        <mxCell id="LdgI6PPyvYazn0JIoq0--22" value="socket server1&amp;nbsp;" style="rounded=0;whiteSpace=wrap;html=1;fontSize=16;" vertex="1" parent="1">
          <mxGeometry x="186" y="1039" width="120" height="60" as="geometry" />
        </mxCell>
        <mxCell id="LdgI6PPyvYazn0JIoq0--23" value="socket server2" style="rounded=0;whiteSpace=wrap;html=1;fontSize=16;" vertex="1" parent="1">
          <mxGeometry x="186" y="1107" width="120" height="60" as="geometry" />
        </mxCell>
        <mxCell id="LdgI6PPyvYazn0JIoq0--24" value="socket server3&amp;nbsp;" style="rounded=0;whiteSpace=wrap;html=1;fontSize=16;" vertex="1" parent="1">
          <mxGeometry x="184" y="1210" width="120" height="60" as="geometry" />
        </mxCell>
        <mxCell id="LdgI6PPyvYazn0JIoq0--27" style="edgeStyle=none;curved=1;rounded=0;orthogonalLoop=1;jettySize=auto;html=1;exitX=0.5;exitY=1;exitDx=0;exitDy=0;fontSize=12;startSize=8;endSize=8;" edge="1" parent="1" source="LdgI6PPyvYazn0JIoq0--28">
          <mxGeometry relative="1" as="geometry">
            <mxPoint x="557.6666666666665" y="1237.2381184895833" as="targetPoint" />
          </mxGeometry>
        </mxCell>
        <mxCell id="LdgI6PPyvYazn0JIoq0--45" style="edgeStyle=none;curved=1;rounded=0;orthogonalLoop=1;jettySize=auto;html=1;fontSize=12;startSize=8;endSize=8;" edge="1" parent="1" source="LdgI6PPyvYazn0JIoq0--25" target="LdgI6PPyvYazn0JIoq0--30">
          <mxGeometry relative="1" as="geometry" />
        </mxCell>
        <mxCell id="LdgI6PPyvYazn0JIoq0--25" value="socket server manager" style="rounded=0;whiteSpace=wrap;html=1;fontSize=16;" vertex="1" parent="1">
          <mxGeometry x="497" y="1075" width="120" height="60" as="geometry" />
        </mxCell>
        <mxCell id="LdgI6PPyvYazn0JIoq0--29" value="" style="edgeStyle=none;curved=1;rounded=0;orthogonalLoop=1;jettySize=auto;html=1;exitX=0.5;exitY=1;exitDx=0;exitDy=0;fontSize=12;startSize=8;endSize=8;" edge="1" parent="1" source="LdgI6PPyvYazn0JIoq0--25" target="LdgI6PPyvYazn0JIoq0--28">
          <mxGeometry relative="1" as="geometry">
            <mxPoint x="557.6666666666665" y="1237.2381184895833" as="targetPoint" />
            <mxPoint x="557" y="1135" as="sourcePoint" />
          </mxGeometry>
        </mxCell>
        <mxCell id="LdgI6PPyvYazn0JIoq0--28" value="cassandra" style="rounded=0;whiteSpace=wrap;html=1;fontSize=16;" vertex="1" parent="1">
          <mxGeometry x="510" y="1197" width="120" height="60" as="geometry" />
        </mxCell>
        <mxCell id="LdgI6PPyvYazn0JIoq0--30" value="location Service" style="whiteSpace=wrap;html=1;fontSize=16;" vertex="1" parent="1">
          <mxGeometry x="681" y="1071" width="120" height="60" as="geometry" />
        </mxCell>
        <mxCell id="LdgI6PPyvYazn0JIoq0--33" style="edgeStyle=none;curved=1;rounded=0;orthogonalLoop=1;jettySize=auto;html=1;entryX=0;entryY=0.5;entryDx=0;entryDy=0;fontSize=12;startSize=8;endSize=8;exitX=1;exitY=0.5;exitDx=0;exitDy=0;" edge="1" parent="1" source="LdgI6PPyvYazn0JIoq0--30" target="LdgI6PPyvYazn0JIoq0--32">
          <mxGeometry relative="1" as="geometry" />
        </mxCell>
        <mxCell id="LdgI6PPyvYazn0JIoq0--41" style="edgeStyle=none;curved=1;rounded=0;orthogonalLoop=1;jettySize=auto;html=1;entryX=0;entryY=0.5;entryDx=0;entryDy=0;fontSize=12;startSize=8;endSize=8;" edge="1" parent="1" source="LdgI6PPyvYazn0JIoq0--31" target="LdgI6PPyvYazn0JIoq0--38">
          <mxGeometry relative="1" as="geometry" />
        </mxCell>
        <mxCell id="LdgI6PPyvYazn0JIoq0--42" style="edgeStyle=none;curved=1;rounded=0;orthogonalLoop=1;jettySize=auto;html=1;entryX=0;entryY=0.5;entryDx=0;entryDy=0;fontSize=12;startSize=8;endSize=8;" edge="1" parent="1" source="LdgI6PPyvYazn0JIoq0--31" target="LdgI6PPyvYazn0JIoq0--34">
          <mxGeometry relative="1" as="geometry" />
        </mxCell>
        <mxCell id="LdgI6PPyvYazn0JIoq0--53" style="edgeStyle=none;curved=1;rounded=0;orthogonalLoop=1;jettySize=auto;html=1;fontSize=12;startSize=8;endSize=8;" edge="1" parent="1" source="LdgI6PPyvYazn0JIoq0--31">
          <mxGeometry relative="1" as="geometry">
            <mxPoint x="117" y="747.0000406901042" as="targetPoint" />
          </mxGeometry>
        </mxCell>
        <mxCell id="LdgI6PPyvYazn0JIoq0--54" style="edgeStyle=none;curved=1;rounded=0;orthogonalLoop=1;jettySize=auto;html=1;entryX=0;entryY=0.25;entryDx=0;entryDy=0;fontSize=12;startSize=8;endSize=8;" edge="1" parent="1" source="LdgI6PPyvYazn0JIoq0--31" target="LdgI6PPyvYazn0JIoq0--51">
          <mxGeometry relative="1" as="geometry">
            <Array as="points">
              <mxPoint x="368" y="729" />
              <mxPoint x="598" y="724" />
            </Array>
          </mxGeometry>
        </mxCell>
        <mxCell id="LdgI6PPyvYazn0JIoq0--31" value="cab search service&amp;nbsp;" style="whiteSpace=wrap;html=1;fontSize=16;" vertex="1" parent="1">
          <mxGeometry x="57" y="807" width="120" height="60" as="geometry" />
        </mxCell>
        <mxCell id="LdgI6PPyvYazn0JIoq0--32" value="redis" style="whiteSpace=wrap;html=1;fontSize=16;" vertex="1" parent="1">
          <mxGeometry x="865" y="1071" width="120" height="60" as="geometry" />
        </mxCell>
        <mxCell id="LdgI6PPyvYazn0JIoq0--37" style="edgeStyle=none;curved=1;rounded=0;orthogonalLoop=1;jettySize=auto;html=1;fontSize=12;startSize=8;endSize=8;" edge="1" parent="1" source="LdgI6PPyvYazn0JIoq0--34" target="LdgI6PPyvYazn0JIoq0--35">
          <mxGeometry relative="1" as="geometry">
            <mxPoint x="320" y="889" as="sourcePoint" />
          </mxGeometry>
        </mxCell>
        <mxCell id="LdgI6PPyvYazn0JIoq0--47" style="edgeStyle=none;curved=1;rounded=0;orthogonalLoop=1;jettySize=auto;html=1;fontSize=12;startSize=8;endSize=8;" edge="1" parent="1" source="LdgI6PPyvYazn0JIoq0--34" target="LdgI6PPyvYazn0JIoq0--30">
          <mxGeometry relative="1" as="geometry" />
        </mxCell>
        <mxCell id="LdgI6PPyvYazn0JIoq0--34" value="coordinate to Box mapper" style="whiteSpace=wrap;html=1;fontSize=16;" vertex="1" parent="1">
          <mxGeometry x="287" y="896" width="120" height="60" as="geometry" />
        </mxCell>
        <mxCell id="LdgI6PPyvYazn0JIoq0--35" value="Google Map&amp;nbsp;&lt;br&gt;Service" style="whiteSpace=wrap;html=1;fontSize=16;" vertex="1" parent="1">
          <mxGeometry x="437" y="810" width="120" height="60" as="geometry" />
        </mxCell>
        <mxCell id="LdgI6PPyvYazn0JIoq0--39" style="edgeStyle=none;curved=1;rounded=0;orthogonalLoop=1;jettySize=auto;html=1;fontSize=12;startSize=8;endSize=8;" edge="1" parent="1" source="LdgI6PPyvYazn0JIoq0--38">
          <mxGeometry relative="1" as="geometry">
            <mxPoint x="438" y="840" as="targetPoint" />
          </mxGeometry>
        </mxCell>
        <mxCell id="LdgI6PPyvYazn0JIoq0--38" value="ETA/Price" style="whiteSpace=wrap;html=1;fontSize=16;" vertex="1" parent="1">
          <mxGeometry x="271" y="810" width="120" height="60" as="geometry" />
        </mxCell>
        <mxCell id="LdgI6PPyvYazn0JIoq0--49" value="cab matching service" style="whiteSpace=wrap;html=1;fontSize=16;" vertex="1" parent="1">
          <mxGeometry x="86" y="682" width="120" height="60" as="geometry" />
        </mxCell>
        <mxCell id="LdgI6PPyvYazn0JIoq0--50" value="ride&lt;br&gt;service" style="whiteSpace=wrap;html=1;fontSize=16;" vertex="1" parent="1">
          <mxGeometry x="579" y="567" width="120" height="57" as="geometry" />
        </mxCell>
        <mxCell id="LdgI6PPyvYazn0JIoq0--56" style="edgeStyle=none;curved=1;rounded=0;orthogonalLoop=1;jettySize=auto;html=1;entryX=1;entryY=0.5;entryDx=0;entryDy=0;fontSize=12;startSize=8;endSize=8;exitX=0.026;exitY=0.111;exitDx=0;exitDy=0;exitPerimeter=0;" edge="1" parent="1" source="LdgI6PPyvYazn0JIoq0--51" target="LdgI6PPyvYazn0JIoq0--50">
          <mxGeometry relative="1" as="geometry" />
        </mxCell>
        <mxCell id="LdgI6PPyvYazn0JIoq0--51" value="Kafka" style="whiteSpace=wrap;html=1;fontSize=16;" vertex="1" parent="1">
          <mxGeometry x="1076" y="498" width="120" height="925" as="geometry" />
        </mxCell>
        <mxCell id="LdgI6PPyvYazn0JIoq0--52" style="edgeStyle=none;curved=1;rounded=0;orthogonalLoop=1;jettySize=auto;html=1;entryX=0.013;entryY=0.208;entryDx=0;entryDy=0;entryPerimeter=0;fontSize=12;startSize=8;endSize=8;" edge="1" parent="1" source="LdgI6PPyvYazn0JIoq0--49" target="LdgI6PPyvYazn0JIoq0--51">
          <mxGeometry relative="1" as="geometry" />
        </mxCell>
        <mxCell id="LdgI6PPyvYazn0JIoq0--57" value="User Login Page" style="whiteSpace=wrap;html=1;fontSize=16;" vertex="1" parent="1">
          <mxGeometry x="-349" y="531" width="120" height="60" as="geometry" />
        </mxCell>
        <mxCell id="LdgI6PPyvYazn0JIoq0--59" value="start a ride" style="whiteSpace=wrap;html=1;fontSize=16;" vertex="1" parent="1">
          <mxGeometry x="-360" y="781" width="120" height="60" as="geometry" />
        </mxCell>
        <mxCell id="LdgI6PPyvYazn0JIoq0--60" value="ride location" style="whiteSpace=wrap;html=1;fontSize=16;" vertex="1" parent="1">
          <mxGeometry x="-366" y="918" width="120" height="60" as="geometry" />
        </mxCell>
        <mxCell id="LdgI6PPyvYazn0JIoq0--63" value="" style="edgeStyle=none;curved=1;rounded=0;orthogonalLoop=1;jettySize=auto;html=1;fontSize=12;startSize=8;endSize=8;" edge="1" parent="1" source="LdgI6PPyvYazn0JIoq0--51" target="LdgI6PPyvYazn0JIoq0--62">
          <mxGeometry relative="1" as="geometry">
            <mxPoint x="1394" y="960.5" as="targetPoint" />
            <mxPoint x="1196" y="961" as="sourcePoint" />
          </mxGeometry>
        </mxCell>
        <mxCell id="LdgI6PPyvYazn0JIoq0--65" style="edgeStyle=none;curved=1;rounded=0;orthogonalLoop=1;jettySize=auto;html=1;fontSize=12;startSize=8;endSize=8;" edge="1" parent="1" source="LdgI6PPyvYazn0JIoq0--66">
          <mxGeometry relative="1" as="geometry">
            <mxPoint x="1403.3333333333335" y="1153.666666666667" as="targetPoint" />
          </mxGeometry>
        </mxCell>
        <mxCell id="LdgI6PPyvYazn0JIoq0--62" value="Apache Spark Streaming Server" style="whiteSpace=wrap;html=1;fontSize=16;" vertex="1" parent="1">
          <mxGeometry x="1338" y="937" width="120" height="60" as="geometry" />
        </mxCell>
        <mxCell id="LdgI6PPyvYazn0JIoq0--67" value="" style="edgeStyle=none;curved=1;rounded=0;orthogonalLoop=1;jettySize=auto;html=1;fontSize=12;startSize=8;endSize=8;" edge="1" parent="1" source="LdgI6PPyvYazn0JIoq0--62" target="LdgI6PPyvYazn0JIoq0--66">
          <mxGeometry relative="1" as="geometry">
            <mxPoint x="1403.3333333333335" y="1153.666666666667" as="targetPoint" />
            <mxPoint x="1399" y="997" as="sourcePoint" />
          </mxGeometry>
        </mxCell>
        <mxCell id="LdgI6PPyvYazn0JIoq0--68" style="edgeStyle=none;curved=1;rounded=0;orthogonalLoop=1;jettySize=auto;html=1;fontSize=12;startSize=8;endSize=8;" edge="1" parent="1" source="LdgI6PPyvYazn0JIoq0--69">
          <mxGeometry relative="1" as="geometry">
            <mxPoint x="1646.666666666667" y="1144" as="targetPoint" />
          </mxGeometry>
        </mxCell>
        <mxCell id="LdgI6PPyvYazn0JIoq0--66" value="Hadoop" style="whiteSpace=wrap;html=1;fontSize=16;" vertex="1" parent="1">
          <mxGeometry x="1338" y="1114" width="120" height="60" as="geometry" />
        </mxCell>
        <mxCell id="LdgI6PPyvYazn0JIoq0--70" value="" style="edgeStyle=none;curved=1;rounded=0;orthogonalLoop=1;jettySize=auto;html=1;fontSize=12;startSize=8;endSize=8;" edge="1" parent="1" source="LdgI6PPyvYazn0JIoq0--66" target="LdgI6PPyvYazn0JIoq0--69">
          <mxGeometry relative="1" as="geometry">
            <mxPoint x="1646.666666666667" y="1144" as="targetPoint" />
            <mxPoint x="1458" y="1144" as="sourcePoint" />
          </mxGeometry>
        </mxCell>
        <mxCell id="LdgI6PPyvYazn0JIoq0--69" value="Apache Spark Service" style="whiteSpace=wrap;html=1;fontSize=16;" vertex="1" parent="1">
          <mxGeometry x="1541" y="1114" width="120" height="60" as="geometry" />
        </mxCell>
        <mxCell id="LdgI6PPyvYazn0JIoq0--71" value="" style="endArrow=none;dashed=1;html=1;dashPattern=1 3;strokeWidth=2;rounded=0;fontSize=12;startSize=8;endSize=8;edgeStyle=none;curved=1;" edge="1" parent="1">
          <mxGeometry width="50" height="50" relative="1" as="geometry">
            <mxPoint x="244.28142857142845" y="1169" as="sourcePoint" />
            <mxPoint x="247.72" y="1207" as="targetPoint" />
            <Array as="points">
              <mxPoint x="244.72" y="1174" />
              <mxPoint x="244.71" y="1164" />
            </Array>
          </mxGeometry>
        </mxCell>
      </root>
    </mxGraphModel>
  </diagram>
  <diagram id="WK5RVtUJnng40w0MKqS4" name="Uber CodeKarle Design">
    <mxGraphModel dx="3805" dy="1970" grid="0" gridSize="10" guides="1" tooltips="1" connect="1" arrows="1" fold="1" page="0" pageScale="1" pageWidth="827" pageHeight="1169" math="0" shadow="0">
      <root>
        <mxCell id="0" />
        <mxCell id="1" parent="0" />
        <mxCell id="BeZw-ObkYRsx-ClfBWfh-7" style="edgeStyle=none;curved=1;rounded=0;orthogonalLoop=1;jettySize=auto;html=1;fontSize=12;startSize=8;endSize=8;" edge="1" parent="1" source="BeZw-ObkYRsx-ClfBWfh-1" target="BeZw-ObkYRsx-ClfBWfh-5">
          <mxGeometry relative="1" as="geometry" />
        </mxCell>
        <mxCell id="BeZw-ObkYRsx-ClfBWfh-1" value="User Service" style="rounded=0;whiteSpace=wrap;html=1;fontSize=16;" vertex="1" parent="1">
          <mxGeometry x="68" y="60" width="90" height="48" as="geometry" />
        </mxCell>
        <mxCell id="BeZw-ObkYRsx-ClfBWfh-8" style="edgeStyle=none;curved=1;rounded=0;orthogonalLoop=1;jettySize=auto;html=1;fontSize=12;startSize=8;endSize=8;" edge="1" parent="1" source="BeZw-ObkYRsx-ClfBWfh-2" target="BeZw-ObkYRsx-ClfBWfh-3">
          <mxGeometry relative="1" as="geometry" />
        </mxCell>
        <mxCell id="BeZw-ObkYRsx-ClfBWfh-2" value="User App" style="whiteSpace=wrap;html=1;fontSize=16;" vertex="1" parent="1">
          <mxGeometry x="-224" y="176" width="120" height="50" as="geometry" />
        </mxCell>
        <mxCell id="BeZw-ObkYRsx-ClfBWfh-9" style="edgeStyle=none;curved=1;rounded=0;orthogonalLoop=1;jettySize=auto;html=1;fontSize=12;startSize=8;endSize=8;" edge="1" parent="1" source="BeZw-ObkYRsx-ClfBWfh-3" target="BeZw-ObkYRsx-ClfBWfh-1">
          <mxGeometry relative="1" as="geometry" />
        </mxCell>
        <mxCell id="BeZw-ObkYRsx-ClfBWfh-10" style="edgeStyle=none;curved=1;rounded=0;orthogonalLoop=1;jettySize=auto;html=1;fontSize=12;startSize=8;endSize=8;entryX=0.25;entryY=0;entryDx=0;entryDy=0;" edge="1" parent="1" source="BeZw-ObkYRsx-ClfBWfh-3" target="BeZw-ObkYRsx-ClfBWfh-11">
          <mxGeometry relative="1" as="geometry">
            <mxPoint x="91" y="244.72727272727263" as="targetPoint" />
          </mxGeometry>
        </mxCell>
        <mxCell id="BeZw-ObkYRsx-ClfBWfh-3" value="Load Balancer" style="whiteSpace=wrap;html=1;fontSize=16;" vertex="1" parent="1">
          <mxGeometry x="-38" y="43" width="82" height="308" as="geometry" />
        </mxCell>
        <mxCell id="BeZw-ObkYRsx-ClfBWfh-4" value="My Sql&amp;nbsp;" style="whiteSpace=wrap;html=1;fontSize=16;" vertex="1" parent="1">
          <mxGeometry x="212" y="26" width="120" height="60" as="geometry" />
        </mxCell>
        <mxCell id="BeZw-ObkYRsx-ClfBWfh-5" value="Redis" style="whiteSpace=wrap;html=1;fontSize=16;" vertex="1" parent="1">
          <mxGeometry x="212" y="113" width="120" height="60" as="geometry" />
        </mxCell>
        <mxCell id="BeZw-ObkYRsx-ClfBWfh-6" style="edgeStyle=none;curved=1;rounded=0;orthogonalLoop=1;jettySize=auto;html=1;entryX=0.007;entryY=0.645;entryDx=0;entryDy=0;entryPerimeter=0;fontSize=12;startSize=8;endSize=8;" edge="1" parent="1" source="BeZw-ObkYRsx-ClfBWfh-1" target="BeZw-ObkYRsx-ClfBWfh-4">
          <mxGeometry relative="1" as="geometry" />
        </mxCell>
        <mxCell id="BeZw-ObkYRsx-ClfBWfh-12" style="edgeStyle=none;curved=1;rounded=0;orthogonalLoop=1;jettySize=auto;html=1;fontSize=12;startSize=8;endSize=8;" edge="1" parent="1" source="BeZw-ObkYRsx-ClfBWfh-11">
          <mxGeometry relative="1" as="geometry">
            <mxPoint x="242.81818181818176" y="282.5" as="targetPoint" />
          </mxGeometry>
        </mxCell>
        <mxCell id="BeZw-ObkYRsx-ClfBWfh-11" value="Cab Request Service" style="whiteSpace=wrap;html=1;fontSize=16;" vertex="1" parent="1">
          <mxGeometry x="68" y="250" width="120" height="65" as="geometry" />
        </mxCell>
        <mxCell id="BeZw-ObkYRsx-ClfBWfh-13" value="Cab Finder" style="whiteSpace=wrap;html=1;fontSize=16;" vertex="1" parent="1">
          <mxGeometry x="244" y="255" width="120" height="60" as="geometry" />
        </mxCell>
        <mxCell id="BeZw-ObkYRsx-ClfBWfh-14" style="edgeStyle=none;curved=1;rounded=0;orthogonalLoop=1;jettySize=auto;html=1;fontSize=12;startSize=8;endSize=8;" edge="1" parent="1" source="BeZw-ObkYRsx-ClfBWfh-15" target="BeZw-ObkYRsx-ClfBWfh-22">
          <mxGeometry relative="1" as="geometry" />
        </mxCell>
        <mxCell id="BeZw-ObkYRsx-ClfBWfh-15" value="Driver Service" style="rounded=0;whiteSpace=wrap;html=1;fontSize=16;" vertex="1" parent="1">
          <mxGeometry x="73" y="461" width="90" height="48" as="geometry" />
        </mxCell>
        <mxCell id="BeZw-ObkYRsx-ClfBWfh-16" style="edgeStyle=none;curved=1;rounded=0;orthogonalLoop=1;jettySize=auto;html=1;fontSize=12;startSize=8;endSize=8;" edge="1" parent="1" source="BeZw-ObkYRsx-ClfBWfh-17" target="BeZw-ObkYRsx-ClfBWfh-20">
          <mxGeometry relative="1" as="geometry" />
        </mxCell>
        <mxCell id="BeZw-ObkYRsx-ClfBWfh-17" value="Driver App" style="whiteSpace=wrap;html=1;fontSize=16;" vertex="1" parent="1">
          <mxGeometry x="-219" y="577" width="120" height="50" as="geometry" />
        </mxCell>
        <mxCell id="BeZw-ObkYRsx-ClfBWfh-18" style="edgeStyle=none;curved=1;rounded=0;orthogonalLoop=1;jettySize=auto;html=1;fontSize=12;startSize=8;endSize=8;" edge="1" parent="1" source="BeZw-ObkYRsx-ClfBWfh-20" target="BeZw-ObkYRsx-ClfBWfh-15">
          <mxGeometry relative="1" as="geometry" />
        </mxCell>
        <mxCell id="BeZw-ObkYRsx-ClfBWfh-19" style="edgeStyle=none;curved=1;rounded=0;orthogonalLoop=1;jettySize=auto;html=1;fontSize=12;startSize=8;endSize=8;entryX=0.25;entryY=0;entryDx=0;entryDy=0;" edge="1" parent="1" source="BeZw-ObkYRsx-ClfBWfh-20" target="BeZw-ObkYRsx-ClfBWfh-25">
          <mxGeometry relative="1" as="geometry">
            <mxPoint x="96" y="645.7272727272726" as="targetPoint" />
          </mxGeometry>
        </mxCell>
        <mxCell id="BeZw-ObkYRsx-ClfBWfh-20" value="Load Balancer" style="whiteSpace=wrap;html=1;fontSize=16;" vertex="1" parent="1">
          <mxGeometry x="-33" y="444" width="82" height="308" as="geometry" />
        </mxCell>
        <mxCell id="BeZw-ObkYRsx-ClfBWfh-21" value="My Sql&amp;nbsp;" style="whiteSpace=wrap;html=1;fontSize=16;" vertex="1" parent="1">
          <mxGeometry x="217" y="427" width="120" height="60" as="geometry" />
        </mxCell>
        <mxCell id="BeZw-ObkYRsx-ClfBWfh-22" value="Redis" style="whiteSpace=wrap;html=1;fontSize=16;" vertex="1" parent="1">
          <mxGeometry x="217" y="514" width="120" height="60" as="geometry" />
        </mxCell>
        <mxCell id="BeZw-ObkYRsx-ClfBWfh-23" style="edgeStyle=none;curved=1;rounded=0;orthogonalLoop=1;jettySize=auto;html=1;entryX=0.007;entryY=0.645;entryDx=0;entryDy=0;entryPerimeter=0;fontSize=12;startSize=8;endSize=8;" edge="1" parent="1" source="BeZw-ObkYRsx-ClfBWfh-15" target="BeZw-ObkYRsx-ClfBWfh-21">
          <mxGeometry relative="1" as="geometry" />
        </mxCell>
        <mxCell id="BeZw-ObkYRsx-ClfBWfh-24" style="edgeStyle=none;curved=1;rounded=0;orthogonalLoop=1;jettySize=auto;html=1;fontSize=12;startSize=8;endSize=8;" edge="1" parent="1" source="BeZw-ObkYRsx-ClfBWfh-25">
          <mxGeometry relative="1" as="geometry">
            <mxPoint x="247.81818181818176" y="683.5" as="targetPoint" />
          </mxGeometry>
        </mxCell>
        <mxCell id="BeZw-ObkYRsx-ClfBWfh-25" value="few services" style="whiteSpace=wrap;html=1;fontSize=16;" vertex="1" parent="1">
          <mxGeometry x="73" y="651" width="120" height="65" as="geometry" />
        </mxCell>
        <mxCell id="BeZw-ObkYRsx-ClfBWfh-26" value="Location Service" style="whiteSpace=wrap;html=1;fontSize=16;" vertex="1" parent="1">
          <mxGeometry x="249" y="656" width="120" height="60" as="geometry" />
        </mxCell>
        <mxCell id="GV1RSsXVH9eGiKQv8JaM-4" style="edgeStyle=none;curved=1;rounded=0;orthogonalLoop=1;jettySize=auto;html=1;fontSize=12;startSize=8;endSize=8;" edge="1" parent="1" source="GV1RSsXVH9eGiKQv8JaM-5">
          <mxGeometry relative="1" as="geometry">
            <mxPoint x="349.82352941176464" y="1629" as="targetPoint" />
          </mxGeometry>
        </mxCell>
        <mxCell id="bVYTrNS3P7tsH5t4dDwb-11" style="edgeStyle=none;curved=1;rounded=0;orthogonalLoop=1;jettySize=auto;html=1;fontSize=12;startSize=8;endSize=8;" edge="1" parent="1" source="GV1RSsXVH9eGiKQv8JaM-1" target="bVYTrNS3P7tsH5t4dDwb-5">
          <mxGeometry relative="1" as="geometry" />
        </mxCell>
        <mxCell id="bVYTrNS3P7tsH5t4dDwb-12" style="edgeStyle=none;curved=1;rounded=0;orthogonalLoop=1;jettySize=auto;html=1;entryX=0;entryY=0.5;entryDx=0;entryDy=0;fontSize=12;startSize=8;endSize=8;" edge="1" parent="1" source="GV1RSsXVH9eGiKQv8JaM-1" target="GV1RSsXVH9eGiKQv8JaM-16">
          <mxGeometry relative="1" as="geometry">
            <Array as="points">
              <mxPoint x="34" y="1778" />
            </Array>
          </mxGeometry>
        </mxCell>
        <mxCell id="bVYTrNS3P7tsH5t4dDwb-20" style="edgeStyle=none;curved=1;rounded=0;orthogonalLoop=1;jettySize=auto;html=1;fontSize=12;startSize=8;endSize=8;" edge="1" parent="1" source="GV1RSsXVH9eGiKQv8JaM-1" target="bVYTrNS3P7tsH5t4dDwb-21">
          <mxGeometry relative="1" as="geometry">
            <mxPoint x="627" y="1641" as="targetPoint" />
            <Array as="points">
              <mxPoint x="422" y="1734" />
            </Array>
          </mxGeometry>
        </mxCell>
        <mxCell id="GV1RSsXVH9eGiKQv8JaM-1" value="Cab Finding Service" style="rounded=0;whiteSpace=wrap;html=1;fontSize=16;" vertex="1" parent="1">
          <mxGeometry x="102" y="1599" width="120" height="60" as="geometry" />
        </mxCell>
        <mxCell id="GV1RSsXVH9eGiKQv8JaM-3" style="edgeStyle=none;curved=1;rounded=0;orthogonalLoop=1;jettySize=auto;html=1;fontSize=12;startSize=8;endSize=8;" edge="1" parent="1" source="GV1RSsXVH9eGiKQv8JaM-2" target="GV1RSsXVH9eGiKQv8JaM-1">
          <mxGeometry relative="1" as="geometry" />
        </mxCell>
        <mxCell id="GV1RSsXVH9eGiKQv8JaM-2" value="Cab Request Service" style="whiteSpace=wrap;html=1;fontSize=16;" vertex="1" parent="1">
          <mxGeometry x="99" y="1465" width="120" height="60" as="geometry" />
        </mxCell>
        <mxCell id="GV1RSsXVH9eGiKQv8JaM-6" value="" style="edgeStyle=none;curved=1;rounded=0;orthogonalLoop=1;jettySize=auto;html=1;fontSize=12;startSize=8;endSize=8;" edge="1" parent="1" source="GV1RSsXVH9eGiKQv8JaM-1" target="GV1RSsXVH9eGiKQv8JaM-5">
          <mxGeometry relative="1" as="geometry">
            <mxPoint x="349.82352941176464" y="1629" as="targetPoint" />
            <mxPoint x="222" y="1629" as="sourcePoint" />
          </mxGeometry>
        </mxCell>
        <mxCell id="GV1RSsXVH9eGiKQv8JaM-7" style="edgeStyle=none;curved=1;rounded=0;orthogonalLoop=1;jettySize=auto;html=1;fontSize=12;startSize=8;endSize=8;" edge="1" parent="1" source="GV1RSsXVH9eGiKQv8JaM-8">
          <mxGeometry relative="1" as="geometry">
            <mxPoint x="358.0588235294117" y="1527.1764705882354" as="targetPoint" />
          </mxGeometry>
        </mxCell>
        <mxCell id="GV1RSsXVH9eGiKQv8JaM-5" value="trip Handling Service" style="whiteSpace=wrap;html=1;fontSize=16;" vertex="1" parent="1">
          <mxGeometry x="362" y="1603" width="120" height="60" as="geometry" />
        </mxCell>
        <mxCell id="GV1RSsXVH9eGiKQv8JaM-9" value="" style="edgeStyle=none;curved=1;rounded=0;orthogonalLoop=1;jettySize=auto;html=1;fontSize=12;startSize=8;endSize=8;" edge="1" parent="1" source="GV1RSsXVH9eGiKQv8JaM-5" target="GV1RSsXVH9eGiKQv8JaM-8">
          <mxGeometry relative="1" as="geometry">
            <mxPoint x="358.0588235294117" y="1527.1764705882354" as="targetPoint" />
            <mxPoint x="386" y="1599" as="sourcePoint" />
          </mxGeometry>
        </mxCell>
        <mxCell id="GV1RSsXVH9eGiKQv8JaM-8" value="My Sql Cluster" style="rounded=0;whiteSpace=wrap;html=1;fontSize=16;" vertex="1" parent="1">
          <mxGeometry x="294" y="1468" width="120" height="60" as="geometry" />
        </mxCell>
        <mxCell id="GV1RSsXVH9eGiKQv8JaM-10" value="Cassandra&lt;br&gt;(Stores History for audits)" style="whiteSpace=wrap;html=1;fontSize=16;" vertex="1" parent="1">
          <mxGeometry x="444" y="1468" width="120" height="60" as="geometry" />
        </mxCell>
        <mxCell id="GV1RSsXVH9eGiKQv8JaM-12" value="Archival Service" style="rounded=0;whiteSpace=wrap;html=1;fontSize=16;" vertex="1" parent="1">
          <mxGeometry x="366" y="1347" width="120" height="60" as="geometry" />
        </mxCell>
        <mxCell id="GV1RSsXVH9eGiKQv8JaM-13" style="edgeStyle=none;curved=1;rounded=0;orthogonalLoop=1;jettySize=auto;html=1;entryX=0.189;entryY=1.003;entryDx=0;entryDy=0;entryPerimeter=0;fontSize=12;startSize=8;endSize=8;" edge="1" parent="1" source="GV1RSsXVH9eGiKQv8JaM-8" target="GV1RSsXVH9eGiKQv8JaM-12">
          <mxGeometry relative="1" as="geometry" />
        </mxCell>
        <mxCell id="GV1RSsXVH9eGiKQv8JaM-14" style="edgeStyle=none;curved=1;rounded=0;orthogonalLoop=1;jettySize=auto;html=1;entryX=0.343;entryY=0.025;entryDx=0;entryDy=0;entryPerimeter=0;fontSize=12;startSize=8;endSize=8;" edge="1" parent="1" source="GV1RSsXVH9eGiKQv8JaM-12" target="GV1RSsXVH9eGiKQv8JaM-10">
          <mxGeometry relative="1" as="geometry" />
        </mxCell>
        <mxCell id="bVYTrNS3P7tsH5t4dDwb-13" style="edgeStyle=none;curved=1;rounded=0;orthogonalLoop=1;jettySize=auto;html=1;fontSize=12;startSize=8;endSize=8;" edge="1" parent="1" source="GV1RSsXVH9eGiKQv8JaM-16">
          <mxGeometry relative="1" as="geometry">
            <mxPoint x="393.1818625710225" y="1911" as="targetPoint" />
          </mxGeometry>
        </mxCell>
        <mxCell id="bVYTrNS3P7tsH5t4dDwb-15" style="edgeStyle=none;curved=1;rounded=0;orthogonalLoop=1;jettySize=auto;html=1;fontSize=12;startSize=8;endSize=8;" edge="1" parent="1" source="GV1RSsXVH9eGiKQv8JaM-16">
          <mxGeometry relative="1" as="geometry">
            <mxPoint x="400.89884440104174" y="2006.9524332682295" as="targetPoint" />
          </mxGeometry>
        </mxCell>
        <mxCell id="bVYTrNS3P7tsH5t4dDwb-17" style="edgeStyle=none;curved=1;rounded=0;orthogonalLoop=1;jettySize=auto;html=1;entryX=0.75;entryY=1;entryDx=0;entryDy=0;fontSize=12;startSize=8;endSize=8;" edge="1" parent="1" source="GV1RSsXVH9eGiKQv8JaM-16" target="bVYTrNS3P7tsH5t4dDwb-5">
          <mxGeometry relative="1" as="geometry" />
        </mxCell>
        <mxCell id="bVYTrNS3P7tsH5t4dDwb-18" style="edgeStyle=none;curved=1;rounded=0;orthogonalLoop=1;jettySize=auto;html=1;entryX=1;entryY=0.75;entryDx=0;entryDy=0;fontSize=12;startSize=8;endSize=8;" edge="1" parent="1" source="GV1RSsXVH9eGiKQv8JaM-16" target="GV1RSsXVH9eGiKQv8JaM-17">
          <mxGeometry relative="1" as="geometry" />
        </mxCell>
        <mxCell id="bVYTrNS3P7tsH5t4dDwb-24" style="edgeStyle=none;curved=1;rounded=0;orthogonalLoop=1;jettySize=auto;html=1;entryX=0.25;entryY=1;entryDx=0;entryDy=0;fontSize=12;startSize=8;endSize=8;" edge="1" parent="1" source="GV1RSsXVH9eGiKQv8JaM-16" target="bVYTrNS3P7tsH5t4dDwb-22">
          <mxGeometry relative="1" as="geometry">
            <Array as="points">
              <mxPoint x="514" y="2375" />
            </Array>
          </mxGeometry>
        </mxCell>
        <mxCell id="GV1RSsXVH9eGiKQv8JaM-16" value="Location Service" style="rounded=0;whiteSpace=wrap;html=1;fontSize=16;" vertex="1" parent="1">
          <mxGeometry x="167" y="1881" width="120" height="60" as="geometry" />
        </mxCell>
        <mxCell id="GV1RSsXVH9eGiKQv8JaM-17" value="LB" style="rounded=0;whiteSpace=wrap;html=1;fontSize=16;" vertex="1" parent="1">
          <mxGeometry x="-43" y="1452" width="78" height="586" as="geometry" />
        </mxCell>
        <mxCell id="GV1RSsXVH9eGiKQv8JaM-18" value="LB" style="rounded=0;whiteSpace=wrap;html=1;fontSize=16;" vertex="1" parent="1">
          <mxGeometry x="-383" y="1454" width="78" height="586" as="geometry" />
        </mxCell>
        <mxCell id="GV1RSsXVH9eGiKQv8JaM-19" value="Web Socket Handler 1" style="rounded=0;whiteSpace=wrap;html=1;fontSize=16;" vertex="1" parent="1">
          <mxGeometry x="-252" y="1478" width="158" height="92" as="geometry" />
        </mxCell>
        <mxCell id="GV1RSsXVH9eGiKQv8JaM-20" value="Web Socket Handler 2" style="rounded=0;whiteSpace=wrap;html=1;fontSize=16;" vertex="1" parent="1">
          <mxGeometry x="-258" y="1616" width="158" height="92" as="geometry" />
        </mxCell>
        <mxCell id="GV1RSsXVH9eGiKQv8JaM-21" value="Web Socket Handler 3" style="rounded=0;whiteSpace=wrap;html=1;fontSize=16;" vertex="1" parent="1">
          <mxGeometry x="-262" y="1770" width="158" height="92" as="geometry" />
        </mxCell>
        <mxCell id="GV1RSsXVH9eGiKQv8JaM-22" value="Web Socket Handler 4" style="rounded=0;whiteSpace=wrap;html=1;fontSize=16;" vertex="1" parent="1">
          <mxGeometry x="-260" y="1916" width="158" height="92" as="geometry" />
        </mxCell>
        <mxCell id="bVYTrNS3P7tsH5t4dDwb-4" value="" style="edgeStyle=none;curved=1;rounded=0;orthogonalLoop=1;jettySize=auto;html=1;fontSize=12;startSize=8;endSize=8;" edge="1" parent="1" source="GV1RSsXVH9eGiKQv8JaM-16" target="bVYTrNS3P7tsH5t4dDwb-2">
          <mxGeometry relative="1" as="geometry">
            <mxPoint x="191" y="1950" as="targetPoint" />
            <mxPoint x="191" y="1869" as="sourcePoint" />
          </mxGeometry>
        </mxCell>
        <mxCell id="bVYTrNS3P7tsH5t4dDwb-2" value="Map Service&lt;br&gt;(ETA,Cost &amp;lt;box finding)" style="whiteSpace=wrap;html=1;fontSize=16;" vertex="1" parent="1">
          <mxGeometry x="171" y="2034" width="120" height="60" as="geometry" />
        </mxCell>
        <mxCell id="bVYTrNS3P7tsH5t4dDwb-5" value="Web Handler Manager" style="whiteSpace=wrap;html=1;fontSize=16;" vertex="1" parent="1">
          <mxGeometry x="104" y="1756" width="120" height="60" as="geometry" />
        </mxCell>
        <mxCell id="bVYTrNS3P7tsH5t4dDwb-10" value="" style="edgeStyle=none;curved=1;rounded=0;orthogonalLoop=1;jettySize=auto;html=1;fontSize=12;startSize=8;endSize=8;" edge="1" parent="1" source="bVYTrNS3P7tsH5t4dDwb-5" target="bVYTrNS3P7tsH5t4dDwb-9">
          <mxGeometry relative="1" as="geometry">
            <mxPoint x="318" y="1796" as="targetPoint" />
            <mxPoint x="190" y="1796" as="sourcePoint" />
          </mxGeometry>
        </mxCell>
        <mxCell id="bVYTrNS3P7tsH5t4dDwb-9" value="Redis" style="whiteSpace=wrap;html=1;fontSize=16;" vertex="1" parent="1">
          <mxGeometry x="299" y="1772" width="120" height="60" as="geometry" />
        </mxCell>
        <mxCell id="bVYTrNS3P7tsH5t4dDwb-14" value="Cassandra&amp;nbsp;&lt;br&gt;(store the user location for audit)" style="rounded=0;whiteSpace=wrap;html=1;fontSize=16;" vertex="1" parent="1">
          <mxGeometry x="395" y="1874" width="126" height="72" as="geometry" />
        </mxCell>
        <mxCell id="bVYTrNS3P7tsH5t4dDwb-16" value="Redis&lt;br&gt;(Block Wise Cab Information)" style="whiteSpace=wrap;html=1;fontSize=16;" vertex="1" parent="1">
          <mxGeometry x="398" y="1982" width="135" height="60" as="geometry" />
        </mxCell>
        <mxCell id="bVYTrNS3P7tsH5t4dDwb-21" value="Driver Priority Engine" style="rounded=0;whiteSpace=wrap;html=1;fontSize=16;" vertex="1" parent="1">
          <mxGeometry x="611" y="1607" width="120" height="60" as="geometry" />
        </mxCell>
        <mxCell id="bVYTrNS3P7tsH5t4dDwb-28" style="edgeStyle=none;curved=1;rounded=0;orthogonalLoop=1;jettySize=auto;html=1;fontSize=12;startSize=8;endSize=8;exitX=0;exitY=0.25;exitDx=0;exitDy=0;" edge="1" parent="1" source="bVYTrNS3P7tsH5t4dDwb-22" target="bVYTrNS3P7tsH5t4dDwb-21">
          <mxGeometry relative="1" as="geometry">
            <mxPoint x="773.6666666666665" y="1728.4444444444443" as="targetPoint" />
          </mxGeometry>
        </mxCell>
        <mxCell id="bVYTrNS3P7tsH5t4dDwb-29" style="edgeStyle=none;curved=1;rounded=0;orthogonalLoop=1;jettySize=auto;html=1;fontSize=12;startSize=8;endSize=8;" edge="1" parent="1" source="bVYTrNS3P7tsH5t4dDwb-22" target="bVYTrNS3P7tsH5t4dDwb-30">
          <mxGeometry relative="1" as="geometry">
            <mxPoint x="1073.45703125" y="1631.82861328125" as="targetPoint" />
          </mxGeometry>
        </mxCell>
        <mxCell id="bVYTrNS3P7tsH5t4dDwb-32" style="edgeStyle=none;curved=1;rounded=0;orthogonalLoop=1;jettySize=auto;html=1;entryX=0;entryY=0.5;entryDx=0;entryDy=0;fontSize=12;startSize=8;endSize=8;" edge="1" parent="1" source="bVYTrNS3P7tsH5t4dDwb-22" target="bVYTrNS3P7tsH5t4dDwb-31">
          <mxGeometry relative="1" as="geometry" />
        </mxCell>
        <mxCell id="bVYTrNS3P7tsH5t4dDwb-22" value="Kafka" style="rounded=0;whiteSpace=wrap;html=1;fontSize=16;" vertex="1" parent="1">
          <mxGeometry x="829" y="1507" width="120" height="496" as="geometry" />
        </mxCell>
        <mxCell id="bVYTrNS3P7tsH5t4dDwb-23" style="edgeStyle=none;curved=1;rounded=0;orthogonalLoop=1;jettySize=auto;html=1;entryX=0.002;entryY=0.621;entryDx=0;entryDy=0;entryPerimeter=0;fontSize=12;startSize=8;endSize=8;" edge="1" parent="1" source="GV1RSsXVH9eGiKQv8JaM-1" target="bVYTrNS3P7tsH5t4dDwb-22">
          <mxGeometry relative="1" as="geometry">
            <Array as="points">
              <mxPoint x="507" y="1806" />
            </Array>
          </mxGeometry>
        </mxCell>
        <mxCell id="bVYTrNS3P7tsH5t4dDwb-27" style="edgeStyle=none;curved=1;rounded=0;orthogonalLoop=1;jettySize=auto;html=1;entryX=0.25;entryY=0;entryDx=0;entryDy=0;fontSize=12;startSize=8;endSize=8;" edge="1" parent="1" source="bVYTrNS3P7tsH5t4dDwb-26" target="GV1RSsXVH9eGiKQv8JaM-2">
          <mxGeometry relative="1" as="geometry">
            <Array as="points">
              <mxPoint x="36" y="1362" />
            </Array>
          </mxGeometry>
        </mxCell>
        <mxCell id="bVYTrNS3P7tsH5t4dDwb-26" value="customer&amp;nbsp;" style="rounded=0;whiteSpace=wrap;html=1;fontSize=16;" vertex="1" parent="1">
          <mxGeometry x="-264" y="1347" width="120" height="60" as="geometry" />
        </mxCell>
        <mxCell id="bVYTrNS3P7tsH5t4dDwb-47" style="edgeStyle=none;curved=1;rounded=0;orthogonalLoop=1;jettySize=auto;html=1;fontSize=12;startSize=8;endSize=8;" edge="1" parent="1" source="bVYTrNS3P7tsH5t4dDwb-30" target="bVYTrNS3P7tsH5t4dDwb-48">
          <mxGeometry relative="1" as="geometry">
            <mxPoint x="1398.6666666666665" y="1655" as="targetPoint" />
          </mxGeometry>
        </mxCell>
        <mxCell id="bVYTrNS3P7tsH5t4dDwb-30" value="Payment Service&lt;br&gt;(Aggregate payment to driver)" style="rounded=0;whiteSpace=wrap;html=1;fontSize=16;" vertex="1" parent="1">
          <mxGeometry x="1079" y="1704.9099999999999" width="239.54" height="84.17" as="geometry" />
        </mxCell>
        <mxCell id="bVYTrNS3P7tsH5t4dDwb-35" style="edgeStyle=none;curved=1;rounded=0;orthogonalLoop=1;jettySize=auto;html=1;fontSize=12;startSize=8;endSize=8;" edge="1" parent="1" source="bVYTrNS3P7tsH5t4dDwb-31" target="bVYTrNS3P7tsH5t4dDwb-33">
          <mxGeometry relative="1" as="geometry" />
        </mxCell>
        <mxCell id="bVYTrNS3P7tsH5t4dDwb-31" value="Spark Streaming Service" style="whiteSpace=wrap;html=1;fontSize=16;" vertex="1" parent="1">
          <mxGeometry x="1081" y="1897" width="120" height="60" as="geometry" />
        </mxCell>
        <mxCell id="bVYTrNS3P7tsH5t4dDwb-36" style="edgeStyle=none;curved=1;rounded=0;orthogonalLoop=1;jettySize=auto;html=1;fontSize=12;startSize=8;endSize=8;" edge="1" parent="1" source="bVYTrNS3P7tsH5t4dDwb-33">
          <mxGeometry relative="1" as="geometry">
            <mxPoint x="1414.6666666666665" y="1927" as="targetPoint" />
          </mxGeometry>
        </mxCell>
        <mxCell id="bVYTrNS3P7tsH5t4dDwb-33" value="Hadoop Cluster" style="whiteSpace=wrap;html=1;fontSize=16;" vertex="1" parent="1">
          <mxGeometry x="1250" y="1897" width="120" height="60" as="geometry" />
        </mxCell>
        <mxCell id="bVYTrNS3P7tsH5t4dDwb-34" style="edgeStyle=none;curved=1;rounded=0;orthogonalLoop=1;jettySize=auto;html=1;exitX=0.5;exitY=1;exitDx=0;exitDy=0;fontSize=12;startSize=8;endSize=8;" edge="1" parent="1" source="bVYTrNS3P7tsH5t4dDwb-33" target="bVYTrNS3P7tsH5t4dDwb-33">
          <mxGeometry relative="1" as="geometry" />
        </mxCell>
        <mxCell id="bVYTrNS3P7tsH5t4dDwb-38" style="edgeStyle=none;curved=1;rounded=0;orthogonalLoop=1;jettySize=auto;html=1;fontSize=12;startSize=8;endSize=8;" edge="1" parent="1" source="bVYTrNS3P7tsH5t4dDwb-40">
          <mxGeometry relative="1" as="geometry">
            <mxPoint x="1510.6666666666665" y="1797.6666666666665" as="targetPoint" />
          </mxGeometry>
        </mxCell>
        <mxCell id="bVYTrNS3P7tsH5t4dDwb-42" style="edgeStyle=none;curved=1;rounded=0;orthogonalLoop=1;jettySize=auto;html=1;entryX=0;entryY=0.5;entryDx=0;entryDy=0;fontSize=12;startSize=8;endSize=8;" edge="1" parent="1" source="bVYTrNS3P7tsH5t4dDwb-37" target="bVYTrNS3P7tsH5t4dDwb-41">
          <mxGeometry relative="1" as="geometry" />
        </mxCell>
        <mxCell id="bVYTrNS3P7tsH5t4dDwb-44" style="edgeStyle=none;curved=1;rounded=0;orthogonalLoop=1;jettySize=auto;html=1;entryX=0;entryY=0.5;entryDx=0;entryDy=0;fontSize=12;startSize=8;endSize=8;" edge="1" parent="1" source="bVYTrNS3P7tsH5t4dDwb-37" target="bVYTrNS3P7tsH5t4dDwb-43">
          <mxGeometry relative="1" as="geometry" />
        </mxCell>
        <mxCell id="bVYTrNS3P7tsH5t4dDwb-46" style="edgeStyle=none;curved=1;rounded=0;orthogonalLoop=1;jettySize=auto;html=1;fontSize=12;startSize=8;endSize=8;" edge="1" parent="1" source="bVYTrNS3P7tsH5t4dDwb-37" target="bVYTrNS3P7tsH5t4dDwb-45">
          <mxGeometry relative="1" as="geometry" />
        </mxCell>
        <mxCell id="bVYTrNS3P7tsH5t4dDwb-49" style="edgeStyle=none;curved=1;rounded=0;orthogonalLoop=1;jettySize=auto;html=1;fontSize=12;startSize=8;endSize=8;" edge="1" parent="1" source="bVYTrNS3P7tsH5t4dDwb-37" target="bVYTrNS3P7tsH5t4dDwb-50">
          <mxGeometry relative="1" as="geometry">
            <mxPoint x="1428" y="2003" as="targetPoint" />
          </mxGeometry>
        </mxCell>
        <mxCell id="bVYTrNS3P7tsH5t4dDwb-37" value="Spark Jobs" style="whiteSpace=wrap;html=1;fontSize=16;" vertex="1" parent="1">
          <mxGeometry x="1412" y="1897" width="120" height="60" as="geometry" />
        </mxCell>
        <mxCell id="bVYTrNS3P7tsH5t4dDwb-39" value="" style="edgeStyle=none;curved=1;rounded=0;orthogonalLoop=1;jettySize=auto;html=1;fontSize=12;startSize=8;endSize=8;" edge="1" parent="1" source="bVYTrNS3P7tsH5t4dDwb-37" target="bVYTrNS3P7tsH5t4dDwb-40">
          <mxGeometry relative="1" as="geometry">
            <mxPoint x="1510.6666666666665" y="1797.6666666666665" as="targetPoint" />
            <mxPoint x="1481" y="1897" as="sourcePoint" />
          </mxGeometry>
        </mxCell>
        <mxCell id="bVYTrNS3P7tsH5t4dDwb-40" value="User Profiiling" style="rounded=0;whiteSpace=wrap;html=1;fontSize=16;" vertex="1" parent="1">
          <mxGeometry x="1445" y="1772" width="120" height="60" as="geometry" />
        </mxCell>
        <mxCell id="bVYTrNS3P7tsH5t4dDwb-41" value="Driver Profiilng" style="rounded=0;whiteSpace=wrap;html=1;fontSize=16;" vertex="1" parent="1">
          <mxGeometry x="1596" y="1824" width="120" height="60" as="geometry" />
        </mxCell>
        <mxCell id="bVYTrNS3P7tsH5t4dDwb-43" value="Driver Priority&lt;br&gt;Engine" style="whiteSpace=wrap;html=1;fontSize=16;" vertex="1" parent="1">
          <mxGeometry x="1603" y="1912" width="120" height="60" as="geometry" />
        </mxCell>
        <mxCell id="bVYTrNS3P7tsH5t4dDwb-45" value="Fraud Engine" style="whiteSpace=wrap;html=1;fontSize=16;" vertex="1" parent="1">
          <mxGeometry x="1496" y="1999" width="120" height="60" as="geometry" />
        </mxCell>
        <mxCell id="bVYTrNS3P7tsH5t4dDwb-48" value="Payment My Sql" style="rounded=0;whiteSpace=wrap;html=1;fontSize=16;" vertex="1" parent="1">
          <mxGeometry x="1338.6666666666665" y="1625" width="120" height="60" as="geometry" />
        </mxCell>
        <mxCell id="bVYTrNS3P7tsH5t4dDwb-50" value="Maps Service" style="rounded=0;whiteSpace=wrap;html=1;fontSize=16;" vertex="1" parent="1">
          <mxGeometry x="1363" y="1997" width="120" height="60" as="geometry" />
        </mxCell>
      </root>
    </mxGraphModel>
  </diagram>
  <diagram id="_BrRA0N592R84vQlyIr5" name="GoogleMaps Initial Design">
    <mxGraphModel dx="1308" dy="925" grid="0" gridSize="10" guides="1" tooltips="1" connect="1" arrows="1" fold="1" page="0" pageScale="1" pageWidth="827" pageHeight="1169" math="0" shadow="0">
      <root>
        <mxCell id="0" />
        <mxCell id="1" parent="0" />
        <mxCell id="oW-cxqhsmAP-SEXVuVe9-1" value="Functional&lt;br&gt;Requirements:-&lt;br&gt;1) find shortest path&amp;nbsp;&lt;br&gt;2) ETA&lt;br&gt;3) view locations and landmark on maps&lt;br&gt;&lt;br&gt;Non Functional Requirements:-&lt;br&gt;1) low latency&lt;br&gt;2) high availability &lt;br&gt;" style="rounded=0;whiteSpace=wrap;html=1;fontSize=16;" vertex="1" parent="1">
          <mxGeometry x="27" y="-54" width="217" height="231" as="geometry" />
        </mxCell>
        <mxCell id="oW-cxqhsmAP-SEXVuVe9-2" value="LB" style="rounded=0;whiteSpace=wrap;html=1;fontSize=16;" vertex="1" parent="1">
          <mxGeometry x="163" y="398" width="81" height="354" as="geometry" />
        </mxCell>
        <mxCell id="oW-cxqhsmAP-SEXVuVe9-20" style="edgeStyle=none;curved=1;rounded=0;orthogonalLoop=1;jettySize=auto;html=1;fontSize=12;startSize=8;endSize=8;" edge="1" parent="1" source="oW-cxqhsmAP-SEXVuVe9-3" target="oW-cxqhsmAP-SEXVuVe9-21">
          <mxGeometry relative="1" as="geometry">
            <mxPoint x="744.3076923076922" y="775.9999999999998" as="targetPoint" />
          </mxGeometry>
        </mxCell>
        <mxCell id="oW-cxqhsmAP-SEXVuVe9-3" value="Segmentation Service" style="rounded=0;whiteSpace=wrap;html=1;fontSize=16;" vertex="1" parent="1">
          <mxGeometry x="538" y="746" width="120" height="60" as="geometry" />
        </mxCell>
        <mxCell id="oW-cxqhsmAP-SEXVuVe9-5" style="edgeStyle=none;curved=1;rounded=0;orthogonalLoop=1;jettySize=auto;html=1;fontSize=12;startSize=8;endSize=8;" edge="1" parent="1" source="oW-cxqhsmAP-SEXVuVe9-4" target="oW-cxqhsmAP-SEXVuVe9-6">
          <mxGeometry relative="1" as="geometry">
            <mxPoint x="590.4615384615383" y="364.7692307692307" as="targetPoint" />
          </mxGeometry>
        </mxCell>
        <mxCell id="oW-cxqhsmAP-SEXVuVe9-8" style="edgeStyle=none;curved=1;rounded=0;orthogonalLoop=1;jettySize=auto;html=1;entryX=0;entryY=0.5;entryDx=0;entryDy=0;fontSize=12;startSize=8;endSize=8;" edge="1" parent="1" source="oW-cxqhsmAP-SEXVuVe9-4" target="oW-cxqhsmAP-SEXVuVe9-7">
          <mxGeometry relative="1" as="geometry" />
        </mxCell>
        <mxCell id="oW-cxqhsmAP-SEXVuVe9-4" value="User Service&amp;nbsp;" style="rounded=0;whiteSpace=wrap;html=1;fontSize=16;" vertex="1" parent="1">
          <mxGeometry x="307" y="356" width="120" height="60" as="geometry" />
        </mxCell>
        <mxCell id="oW-cxqhsmAP-SEXVuVe9-6" value="My Sql" style="rounded=0;whiteSpace=wrap;html=1;fontSize=16;" vertex="1" parent="1">
          <mxGeometry x="530.4615384615383" y="334.7692307692307" width="120" height="60" as="geometry" />
        </mxCell>
        <mxCell id="oW-cxqhsmAP-SEXVuVe9-7" value="Redis" style="rounded=0;whiteSpace=wrap;html=1;fontSize=16;" vertex="1" parent="1">
          <mxGeometry x="530.46" y="422" width="120" height="57" as="geometry" />
        </mxCell>
        <mxCell id="oW-cxqhsmAP-SEXVuVe9-10" style="edgeStyle=none;curved=1;rounded=0;orthogonalLoop=1;jettySize=auto;html=1;fontSize=12;startSize=8;endSize=8;" edge="1" parent="1" source="oW-cxqhsmAP-SEXVuVe9-9" target="oW-cxqhsmAP-SEXVuVe9-11">
          <mxGeometry relative="1" as="geometry">
            <mxPoint x="572" y="544" as="targetPoint" />
          </mxGeometry>
        </mxCell>
        <mxCell id="oW-cxqhsmAP-SEXVuVe9-12" style="edgeStyle=none;curved=1;rounded=0;orthogonalLoop=1;jettySize=auto;html=1;fontSize=12;startSize=8;endSize=8;" edge="1" parent="1" source="oW-cxqhsmAP-SEXVuVe9-9" target="oW-cxqhsmAP-SEXVuVe9-13">
          <mxGeometry relative="1" as="geometry">
            <mxPoint x="518.1538461538462" y="646.3076923076922" as="targetPoint" />
          </mxGeometry>
        </mxCell>
        <mxCell id="oW-cxqhsmAP-SEXVuVe9-9" value="LandMark&lt;br&gt;Service" style="rounded=0;whiteSpace=wrap;html=1;fontSize=16;" vertex="1" parent="1">
          <mxGeometry x="307" y="514" width="120" height="60" as="geometry" />
        </mxCell>
        <mxCell id="oW-cxqhsmAP-SEXVuVe9-11" value="Cassandra&lt;br&gt;(Address, lat long)" style="rounded=0;whiteSpace=wrap;html=1;fontSize=16;" vertex="1" parent="1">
          <mxGeometry x="512" y="514" width="120" height="60" as="geometry" />
        </mxCell>
        <mxCell id="oW-cxqhsmAP-SEXVuVe9-14" style="edgeStyle=none;curved=1;rounded=0;orthogonalLoop=1;jettySize=auto;html=1;fontSize=12;startSize=8;endSize=8;" edge="1" parent="1" source="oW-cxqhsmAP-SEXVuVe9-13" target="oW-cxqhsmAP-SEXVuVe9-15">
          <mxGeometry relative="1" as="geometry">
            <mxPoint x="761.230769230769" y="606.3076923076922" as="targetPoint" />
          </mxGeometry>
        </mxCell>
        <mxCell id="oW-cxqhsmAP-SEXVuVe9-13" value="Elastic Search" style="rounded=0;whiteSpace=wrap;html=1;fontSize=16;" vertex="1" parent="1">
          <mxGeometry x="526.0038461538462" y="617.9976923076922" width="120" height="60" as="geometry" />
        </mxCell>
        <mxCell id="oW-cxqhsmAP-SEXVuVe9-15" value="Search Service" style="rounded=0;whiteSpace=wrap;html=1;fontSize=16;" vertex="1" parent="1">
          <mxGeometry x="701.230769230769" y="576.3076923076922" width="120" height="60" as="geometry" />
        </mxCell>
        <mxCell id="oW-cxqhsmAP-SEXVuVe9-16" value="Shortest Distance Service" style="rounded=0;whiteSpace=wrap;html=1;fontSize=16;" vertex="1" parent="1">
          <mxGeometry x="458" y="884" width="120" height="85" as="geometry" />
        </mxCell>
        <mxCell id="oW-cxqhsmAP-SEXVuVe9-18" style="edgeStyle=none;curved=1;rounded=0;orthogonalLoop=1;jettySize=auto;html=1;fontSize=12;startSize=8;endSize=8;" edge="1" parent="1" source="oW-cxqhsmAP-SEXVuVe9-17" target="oW-cxqhsmAP-SEXVuVe9-3">
          <mxGeometry relative="1" as="geometry" />
        </mxCell>
        <mxCell id="oW-cxqhsmAP-SEXVuVe9-19" style="edgeStyle=none;curved=1;rounded=0;orthogonalLoop=1;jettySize=auto;html=1;fontSize=12;startSize=8;endSize=8;" edge="1" parent="1" source="oW-cxqhsmAP-SEXVuVe9-17" target="oW-cxqhsmAP-SEXVuVe9-16">
          <mxGeometry relative="1" as="geometry" />
        </mxCell>
        <mxCell id="oW-cxqhsmAP-SEXVuVe9-17" value="Routing Service" style="whiteSpace=wrap;html=1;fontSize=16;" vertex="1" parent="1">
          <mxGeometry x="311" y="743" width="120" height="60" as="geometry" />
        </mxCell>
        <mxCell id="oW-cxqhsmAP-SEXVuVe9-21" value="Cassandra&lt;br&gt;DB" style="rounded=0;whiteSpace=wrap;html=1;fontSize=16;" vertex="1" parent="1">
          <mxGeometry x="755.9976923076922" y="742.9999999999998" width="120" height="60" as="geometry" />
        </mxCell>
        <mxCell id="oW-cxqhsmAP-SEXVuVe9-37" style="edgeStyle=none;curved=1;rounded=0;orthogonalLoop=1;jettySize=auto;html=1;entryX=0.5;entryY=1;entryDx=0;entryDy=0;fontSize=12;startSize=8;endSize=8;" edge="1" parent="1" source="oW-cxqhsmAP-SEXVuVe9-22" target="oW-cxqhsmAP-SEXVuVe9-36">
          <mxGeometry relative="1" as="geometry" />
        </mxCell>
        <mxCell id="oW-cxqhsmAP-SEXVuVe9-22" value="cassandra" style="rounded=0;whiteSpace=wrap;html=1;fontSize=16;" vertex="1" parent="1">
          <mxGeometry x="642" y="1007" width="120" height="60" as="geometry" />
        </mxCell>
        <mxCell id="oW-cxqhsmAP-SEXVuVe9-24" style="edgeStyle=none;curved=1;rounded=0;orthogonalLoop=1;jettySize=auto;html=1;fontSize=12;startSize=8;endSize=8;" edge="1" parent="1" source="oW-cxqhsmAP-SEXVuVe9-23" target="oW-cxqhsmAP-SEXVuVe9-22">
          <mxGeometry relative="1" as="geometry" />
        </mxCell>
        <mxCell id="oW-cxqhsmAP-SEXVuVe9-23" value="edge update service" style="whiteSpace=wrap;html=1;fontSize=16;" vertex="1" parent="1">
          <mxGeometry x="415" y="1030" width="120" height="60" as="geometry" />
        </mxCell>
        <mxCell id="oW-cxqhsmAP-SEXVuVe9-25" value="Web Socket Handler 3" style="rounded=0;whiteSpace=wrap;html=1;fontSize=16;" vertex="1" parent="1">
          <mxGeometry x="-101" y="558" width="120" height="60" as="geometry" />
        </mxCell>
        <mxCell id="oW-cxqhsmAP-SEXVuVe9-26" value="Web Socket Handler 1" style="rounded=0;whiteSpace=wrap;html=1;fontSize=16;" vertex="1" parent="1">
          <mxGeometry x="-101" y="404" width="120" height="60" as="geometry" />
        </mxCell>
        <mxCell id="oW-cxqhsmAP-SEXVuVe9-27" value="Web Socket Handler 2" style="rounded=0;whiteSpace=wrap;html=1;fontSize=16;" vertex="1" parent="1">
          <mxGeometry x="-101" y="479" width="120" height="60" as="geometry" />
        </mxCell>
        <mxCell id="oW-cxqhsmAP-SEXVuVe9-28" value="Web Socket Handler 4" style="rounded=0;whiteSpace=wrap;html=1;fontSize=16;" vertex="1" parent="1">
          <mxGeometry x="-98" y="655" width="120" height="60" as="geometry" />
        </mxCell>
        <mxCell id="oW-cxqhsmAP-SEXVuVe9-29" value="Web Socket Handler 5" style="rounded=0;whiteSpace=wrap;html=1;fontSize=16;" vertex="1" parent="1">
          <mxGeometry x="-93" y="730" width="120" height="51" as="geometry" />
        </mxCell>
        <mxCell id="oW-cxqhsmAP-SEXVuVe9-32" style="edgeStyle=none;curved=1;rounded=0;orthogonalLoop=1;jettySize=auto;html=1;entryX=0;entryY=0.5;entryDx=0;entryDy=0;fontSize=12;startSize=8;endSize=8;" edge="1" parent="1" source="oW-cxqhsmAP-SEXVuVe9-31" target="oW-cxqhsmAP-SEXVuVe9-23">
          <mxGeometry relative="1" as="geometry" />
        </mxCell>
        <mxCell id="oW-cxqhsmAP-SEXVuVe9-34" style="edgeStyle=none;curved=1;rounded=0;orthogonalLoop=1;jettySize=auto;html=1;fontSize=12;startSize=8;endSize=8;" edge="1" parent="1" source="oW-cxqhsmAP-SEXVuVe9-31" target="oW-cxqhsmAP-SEXVuVe9-17">
          <mxGeometry relative="1" as="geometry" />
        </mxCell>
        <mxCell id="oW-cxqhsmAP-SEXVuVe9-35" style="edgeStyle=none;curved=1;rounded=0;orthogonalLoop=1;jettySize=auto;html=1;fontSize=12;startSize=8;endSize=8;" edge="1" parent="1" source="oW-cxqhsmAP-SEXVuVe9-31" target="oW-cxqhsmAP-SEXVuVe9-9">
          <mxGeometry relative="1" as="geometry" />
        </mxCell>
        <mxCell id="qetzohEBcX56DXy2QxTY-1" style="edgeStyle=none;curved=1;rounded=0;orthogonalLoop=1;jettySize=auto;html=1;fontSize=12;startSize=8;endSize=8;" edge="1" parent="1" source="oW-cxqhsmAP-SEXVuVe9-31" target="qetzohEBcX56DXy2QxTY-2">
          <mxGeometry relative="1" as="geometry">
            <mxPoint x="369.33333333333326" y="969" as="targetPoint" />
          </mxGeometry>
        </mxCell>
        <mxCell id="oW-cxqhsmAP-SEXVuVe9-31" value="Web Socket Handler Manager" style="whiteSpace=wrap;html=1;fontSize=16;" vertex="1" parent="1">
          <mxGeometry x="193" y="939" width="120" height="60" as="geometry" />
        </mxCell>
        <mxCell id="oW-cxqhsmAP-SEXVuVe9-38" style="edgeStyle=none;curved=1;rounded=0;orthogonalLoop=1;jettySize=auto;html=1;entryX=1;entryY=1;entryDx=0;entryDy=0;fontSize=12;startSize=8;endSize=8;" edge="1" parent="1" source="oW-cxqhsmAP-SEXVuVe9-36" target="oW-cxqhsmAP-SEXVuVe9-17">
          <mxGeometry relative="1" as="geometry" />
        </mxCell>
        <mxCell id="oW-cxqhsmAP-SEXVuVe9-36" value="Edge&amp;nbsp; wt calculation Service" style="rounded=0;whiteSpace=wrap;html=1;fontSize=16;" vertex="1" parent="1">
          <mxGeometry x="798" y="924" width="120" height="60" as="geometry" />
        </mxCell>
        <mxCell id="qetzohEBcX56DXy2QxTY-2" value="redis" style="rounded=0;whiteSpace=wrap;html=1;fontSize=16;" vertex="1" parent="1">
          <mxGeometry x="187.00333333333327" y="1052" width="120" height="60" as="geometry" />
        </mxCell>
      </root>
    </mxGraphModel>
  </diagram>
  <diagram id="3u2kwds9TZ34t4HShgwO" name="Google Maps CodeKarle Design">
    <mxGraphModel dx="757" dy="438" grid="0" gridSize="10" guides="1" tooltips="1" connect="1" arrows="1" fold="1" page="0" pageScale="1" pageWidth="827" pageHeight="1169" math="0" shadow="0">
      <root>
        <mxCell id="0" />
        <mxCell id="1" parent="0" />
        <mxCell id="A25XqJFMMQfGA-jCllDW-1" value="Functional Requirements:-&lt;br&gt;1)Identify Roads/Routes&lt;br&gt;2)Distance and ETA between 2 points&lt;br&gt;3)Pluggable&lt;br&gt;&lt;br&gt;Non Functional Requirement:-&lt;br&gt;1)Good Accuracy&lt;br&gt;2) high availability&lt;br&gt;3) not too slow&lt;br&gt;" style="rounded=0;whiteSpace=wrap;html=1;fontSize=16;" vertex="1" parent="1">
          <mxGeometry x="115" y="5" width="325" height="191" as="geometry" />
        </mxCell>
        <mxCell id="A25XqJFMMQfGA-jCllDW-2" value="Notes on Design:-&lt;br&gt;1) It becomes a very hard problem to solve due to the very large amount of data required to model this and also to find the right data in all the different scenarios.&lt;br&gt;2) the world is divided into various segments&lt;br&gt;3) different weights of roads and directed edges(for different time wts and to show one way roads)&lt;br&gt;4)Intra Segment Calculation:-Calculate shortest path b/w all the junctions inside a segment using floyyd warshall algortihm and store it in a db (cache)&lt;br&gt;5)Inter Segment Calculation :- First find out the distance between the centres of source segment and destination segment. if the distance is for example 10km then make the search in segments of square 20 x 20 if size of a segment is 1km x 1km.&amp;nbsp;&lt;br&gt;Secondly, we will search using the entry points and exit points of all the segments..(we will create a graph in runtime using entry and exits instead of using graphs of all the small edges).&lt;br&gt;Thirdly , for country wide routes , we create mega segments instead of normal segments. this is called nesting of segments.(3 levels of nesting should be enough in real world)..&lt;br&gt;Fourth- distance and avg speed should be the 2 weights and the traffic and weather and other data can be absorbed into the avg speed data , as other wise the entire djistra algo and thus the design would be changed (which is a bad design). Anyways the avg speed could be found out using real world data.&lt;br&gt;fifth:- traffic and weather can be categorical or one hot encoded.&lt;br&gt;sixth :- when the traffic or weather or any of the weigths of the road changes then the corresponding road wt is updated in the cache. Now we find out which all shortest routes , this edge is a part of in the segment(this means that in the cache we also need to store what edges are part of the shortest route). we update all such routes. similar updations might happen for the mega segments as well.&amp;nbsp;&lt;br&gt;seven :- we can also calculate the ETA based on the historical ETA like on a particular day of the week.&lt;br&gt;eight :- if there is a very high increase in wt of road (ex 30% right ) then the shortest route will have to be re calculated and the updated route will have to be bubbled up" style="rounded=0;whiteSpace=wrap;html=1;fontSize=16;" vertex="1" parent="1">
          <mxGeometry x="115" y="275" width="629" height="902" as="geometry" />
        </mxCell>
        <mxCell id="ZYS8lfl0qdMhJp2Zu_Ta-4" style="edgeStyle=none;curved=1;rounded=0;orthogonalLoop=1;jettySize=auto;html=1;entryX=0;entryY=0.5;entryDx=0;entryDy=0;fontSize=12;startSize=8;endSize=8;" edge="1" parent="1" source="ZYS8lfl0qdMhJp2Zu_Ta-1" target="ZYS8lfl0qdMhJp2Zu_Ta-2">
          <mxGeometry relative="1" as="geometry" />
        </mxCell>
        <mxCell id="ZYS8lfl0qdMhJp2Zu_Ta-1" value="User Location&amp;nbsp;" style="rounded=0;whiteSpace=wrap;html=1;fontSize=16;" vertex="1" parent="1">
          <mxGeometry x="170" y="1333" width="120" height="60" as="geometry" />
        </mxCell>
        <mxCell id="ZYS8lfl0qdMhJp2Zu_Ta-5" style="edgeStyle=none;curved=1;rounded=0;orthogonalLoop=1;jettySize=auto;html=1;fontSize=12;startSize=8;endSize=8;" edge="1" parent="1" source="ZYS8lfl0qdMhJp2Zu_Ta-2" target="ZYS8lfl0qdMhJp2Zu_Ta-3">
          <mxGeometry relative="1" as="geometry" />
        </mxCell>
        <mxCell id="ZYS8lfl0qdMhJp2Zu_Ta-10" style="edgeStyle=none;curved=1;rounded=0;orthogonalLoop=1;jettySize=auto;html=1;entryX=0;entryY=0.75;entryDx=0;entryDy=0;fontSize=12;startSize=8;endSize=8;" edge="1" parent="1" source="ZYS8lfl0qdMhJp2Zu_Ta-2" target="ZYS8lfl0qdMhJp2Zu_Ta-8">
          <mxGeometry relative="1" as="geometry" />
        </mxCell>
        <mxCell id="ZYS8lfl0qdMhJp2Zu_Ta-2" value="Web Socket Handler" style="rounded=0;whiteSpace=wrap;html=1;fontSize=16;" vertex="1" parent="1">
          <mxGeometry x="382" y="1337" width="120" height="60" as="geometry" />
        </mxCell>
        <mxCell id="ZYS8lfl0qdMhJp2Zu_Ta-6" style="edgeStyle=none;curved=1;rounded=0;orthogonalLoop=1;jettySize=auto;html=1;fontSize=12;startSize=8;endSize=8;" edge="1" parent="1" source="ZYS8lfl0qdMhJp2Zu_Ta-3">
          <mxGeometry relative="1" as="geometry">
            <mxPoint x="779" y="1344" as="targetPoint" />
          </mxGeometry>
        </mxCell>
        <mxCell id="ZYS8lfl0qdMhJp2Zu_Ta-3" value="Web Socket Manager" style="rounded=0;whiteSpace=wrap;html=1;fontSize=16;" vertex="1" parent="1">
          <mxGeometry x="582" y="1314" width="120" height="60" as="geometry" />
        </mxCell>
        <mxCell id="ZYS8lfl0qdMhJp2Zu_Ta-7" value="Redis" style="whiteSpace=wrap;html=1;fontSize=16;" vertex="1" parent="1">
          <mxGeometry x="782" y="1314" width="120" height="60" as="geometry" />
        </mxCell>
        <mxCell id="ZYS8lfl0qdMhJp2Zu_Ta-11" style="edgeStyle=none;curved=1;rounded=0;orthogonalLoop=1;jettySize=auto;html=1;fontSize=12;startSize=8;endSize=8;" edge="1" parent="1" source="ZYS8lfl0qdMhJp2Zu_Ta-8">
          <mxGeometry relative="1" as="geometry">
            <mxPoint x="772" y="1491" as="targetPoint" />
          </mxGeometry>
        </mxCell>
        <mxCell id="ZYS8lfl0qdMhJp2Zu_Ta-8" value="Location Service" style="rounded=0;whiteSpace=wrap;html=1;fontSize=16;" vertex="1" parent="1">
          <mxGeometry x="584" y="1456" width="120" height="60" as="geometry" />
        </mxCell>
        <mxCell id="ZYS8lfl0qdMhJp2Zu_Ta-12" value="Cassandra" style="whiteSpace=wrap;html=1;fontSize=16;" vertex="1" parent="1">
          <mxGeometry x="772" y="1461" width="120" height="60" as="geometry" />
        </mxCell>
        <mxCell id="ZYS8lfl0qdMhJp2Zu_Ta-15" style="edgeStyle=none;curved=1;rounded=0;orthogonalLoop=1;jettySize=auto;html=1;fontSize=12;startSize=8;endSize=8;" edge="1" parent="1" source="ZYS8lfl0qdMhJp2Zu_Ta-13">
          <mxGeometry relative="1" as="geometry">
            <mxPoint x="836.3846717247595" y="1624.615234375" as="targetPoint" />
          </mxGeometry>
        </mxCell>
        <mxCell id="ZYS8lfl0qdMhJp2Zu_Ta-21" style="edgeStyle=none;curved=1;rounded=0;orthogonalLoop=1;jettySize=auto;html=1;exitX=1;exitY=0.25;exitDx=0;exitDy=0;fontSize=12;startSize=8;endSize=8;" edge="1" parent="1" source="ZYS8lfl0qdMhJp2Zu_Ta-13">
          <mxGeometry relative="1" as="geometry">
            <mxPoint x="1253.5384615384614" y="1509.3846153846152" as="targetPoint" />
          </mxGeometry>
        </mxCell>
        <mxCell id="ZYS8lfl0qdMhJp2Zu_Ta-23" style="edgeStyle=none;curved=1;rounded=0;orthogonalLoop=1;jettySize=auto;html=1;fontSize=12;startSize=8;endSize=8;" edge="1" parent="1" source="ZYS8lfl0qdMhJp2Zu_Ta-13">
          <mxGeometry relative="1" as="geometry">
            <mxPoint x="1421.230769230769" y="1615" as="targetPoint" />
          </mxGeometry>
        </mxCell>
        <mxCell id="ZYS8lfl0qdMhJp2Zu_Ta-13" value="Kafka" style="rounded=0;whiteSpace=wrap;html=1;fontSize=16;" vertex="1" parent="1">
          <mxGeometry x="975" y="1405" width="120" height="420" as="geometry" />
        </mxCell>
        <mxCell id="ZYS8lfl0qdMhJp2Zu_Ta-14" style="edgeStyle=none;curved=1;rounded=0;orthogonalLoop=1;jettySize=auto;html=1;entryX=-0.025;entryY=0.079;entryDx=0;entryDy=0;entryPerimeter=0;fontSize=12;startSize=8;endSize=8;" edge="1" parent="1" source="ZYS8lfl0qdMhJp2Zu_Ta-8" target="ZYS8lfl0qdMhJp2Zu_Ta-13">
          <mxGeometry relative="1" as="geometry">
            <Array as="points">
              <mxPoint x="820" y="1397" />
            </Array>
          </mxGeometry>
        </mxCell>
        <mxCell id="ZYS8lfl0qdMhJp2Zu_Ta-17" style="edgeStyle=none;curved=1;rounded=0;orthogonalLoop=1;jettySize=auto;html=1;fontSize=12;startSize=8;endSize=8;" edge="1" parent="1" source="ZYS8lfl0qdMhJp2Zu_Ta-16" target="ZYS8lfl0qdMhJp2Zu_Ta-18">
          <mxGeometry relative="1" as="geometry">
            <mxPoint x="473.53846153846143" y="1647" as="targetPoint" />
          </mxGeometry>
        </mxCell>
        <mxCell id="ZYS8lfl0qdMhJp2Zu_Ta-16" value="Spark Streaming Service&lt;br&gt;-roads addition&amp;nbsp;&lt;br&gt;-roads ETA updating&lt;br&gt;-hotspot identification" style="rounded=0;whiteSpace=wrap;html=1;fontSize=16;" vertex="1" parent="1">
          <mxGeometry x="636" y="1600" width="200" height="94" as="geometry" />
        </mxCell>
        <mxCell id="ZYS8lfl0qdMhJp2Zu_Ta-19" style="edgeStyle=none;curved=1;rounded=0;orthogonalLoop=1;jettySize=auto;html=1;fontSize=12;startSize=8;endSize=8;" edge="1" parent="1" source="ZYS8lfl0qdMhJp2Zu_Ta-18" target="ZYS8lfl0qdMhJp2Zu_Ta-20">
          <mxGeometry relative="1" as="geometry">
            <mxPoint x="473.53846153846143" y="1784.7692307692305" as="targetPoint" />
          </mxGeometry>
        </mxCell>
        <mxCell id="ZYS8lfl0qdMhJp2Zu_Ta-18" value="Hadoop Cluster" style="rounded=0;whiteSpace=wrap;html=1;fontSize=16;" vertex="1" parent="1">
          <mxGeometry x="413.53846153846143" y="1617" width="120" height="60" as="geometry" />
        </mxCell>
        <mxCell id="ZYS8lfl0qdMhJp2Zu_Ta-20" value="Spark ML job&lt;br&gt;-road type&lt;br&gt;- vehicle type" style="rounded=0;whiteSpace=wrap;html=1;fontSize=16;" vertex="1" parent="1">
          <mxGeometry x="413.53846153846143" y="1754.7692307692305" width="120" height="60" as="geometry" />
        </mxCell>
        <mxCell id="ZYS8lfl0qdMhJp2Zu_Ta-25" style="edgeStyle=none;curved=1;rounded=0;orthogonalLoop=1;jettySize=auto;html=1;fontSize=12;startSize=8;endSize=8;" edge="1" parent="1" source="ZYS8lfl0qdMhJp2Zu_Ta-22">
          <mxGeometry relative="1" as="geometry">
            <mxPoint x="1307" y="1734.4736842105265" as="targetPoint" />
          </mxGeometry>
        </mxCell>
        <mxCell id="ZYS8lfl0qdMhJp2Zu_Ta-22" value="Map Update Service" style="whiteSpace=wrap;html=1;fontSize=16;" vertex="1" parent="1">
          <mxGeometry x="1247" y="1481" width="120" height="60" as="geometry" />
        </mxCell>
        <mxCell id="ZYS8lfl0qdMhJp2Zu_Ta-26" style="edgeStyle=none;curved=1;rounded=0;orthogonalLoop=1;jettySize=auto;html=1;fontSize=12;startSize=8;endSize=8;" edge="1" parent="1" source="ZYS8lfl0qdMhJp2Zu_Ta-24">
          <mxGeometry relative="1" as="geometry">
            <mxPoint x="1479.9999999999995" y="1731.3157894736842" as="targetPoint" />
          </mxGeometry>
        </mxCell>
        <mxCell id="ZYS8lfl0qdMhJp2Zu_Ta-24" value="Traffic Update Service" style="rounded=0;whiteSpace=wrap;html=1;fontSize=16;" vertex="1" parent="1">
          <mxGeometry x="1420" y="1585" width="120" height="60" as="geometry" />
        </mxCell>
        <mxCell id="ZYS8lfl0qdMhJp2Zu_Ta-30" value="" style="edgeStyle=none;curved=1;rounded=0;orthogonalLoop=1;jettySize=auto;html=1;fontSize=12;startSize=8;endSize=8;" edge="1" parent="1" source="ZYS8lfl0qdMhJp2Zu_Ta-27" target="ZYS8lfl0qdMhJp2Zu_Ta-29">
          <mxGeometry relative="1" as="geometry" />
        </mxCell>
        <mxCell id="ZYS8lfl0qdMhJp2Zu_Ta-27" value="Graph processing service" style="rounded=0;whiteSpace=wrap;html=1;fontSize=16;" vertex="1" parent="1">
          <mxGeometry x="1268" y="1737" width="272" height="40" as="geometry" />
        </mxCell>
        <mxCell id="ZYS8lfl0qdMhJp2Zu_Ta-29" value="Cassandra" style="whiteSpace=wrap;html=1;fontSize=16;rounded=0;" vertex="1" parent="1">
          <mxGeometry x="1344" y="1887" width="120" height="60" as="geometry" />
        </mxCell>
        <mxCell id="ZYS8lfl0qdMhJp2Zu_Ta-36" style="edgeStyle=none;curved=1;rounded=0;orthogonalLoop=1;jettySize=auto;html=1;exitX=1;exitY=0.75;exitDx=0;exitDy=0;fontSize=12;startSize=8;endSize=8;entryX=0;entryY=0.5;entryDx=0;entryDy=0;" edge="1" parent="1" source="ZYS8lfl0qdMhJp2Zu_Ta-31" target="ZYS8lfl0qdMhJp2Zu_Ta-53">
          <mxGeometry relative="1" as="geometry">
            <mxPoint x="645" y="2287" as="targetPoint" />
          </mxGeometry>
        </mxCell>
        <mxCell id="ZYS8lfl0qdMhJp2Zu_Ta-31" value="User Navigation Flow" style="rounded=0;whiteSpace=wrap;html=1;fontSize=16;" vertex="1" parent="1">
          <mxGeometry x="478" y="2254" width="120" height="60" as="geometry" />
        </mxCell>
        <mxCell id="ZYS8lfl0qdMhJp2Zu_Ta-34" style="edgeStyle=none;curved=1;rounded=0;orthogonalLoop=1;jettySize=auto;html=1;fontSize=12;startSize=8;endSize=8;" edge="1" parent="1" source="ZYS8lfl0qdMhJp2Zu_Ta-33">
          <mxGeometry relative="1" as="geometry">
            <mxPoint x="989.3333333333333" y="2187" as="targetPoint" />
          </mxGeometry>
        </mxCell>
        <mxCell id="ZYS8lfl0qdMhJp2Zu_Ta-78" style="edgeStyle=none;curved=1;rounded=0;orthogonalLoop=1;jettySize=auto;html=1;fontSize=12;startSize=8;endSize=8;" edge="1" parent="1" source="ZYS8lfl0qdMhJp2Zu_Ta-33" target="ZYS8lfl0qdMhJp2Zu_Ta-64">
          <mxGeometry relative="1" as="geometry" />
        </mxCell>
        <mxCell id="ZYS8lfl0qdMhJp2Zu_Ta-33" value="Area search service" style="rounded=0;whiteSpace=wrap;html=1;fontSize=16;" vertex="1" parent="1">
          <mxGeometry x="785.3333333333333" y="2157" width="120" height="60" as="geometry" />
        </mxCell>
        <mxCell id="ZYS8lfl0qdMhJp2Zu_Ta-35" value="Elastic Search db&lt;br&gt;-areas in db along with lat long&lt;br&gt;-address to lat long conversion" style="rounded=0;whiteSpace=wrap;html=1;fontSize=16;" vertex="1" parent="1">
          <mxGeometry x="991" y="2121" width="301" height="71" as="geometry" />
        </mxCell>
        <mxCell id="ZYS8lfl0qdMhJp2Zu_Ta-45" style="edgeStyle=none;curved=1;rounded=0;orthogonalLoop=1;jettySize=auto;html=1;fontSize=12;startSize=8;endSize=8;" edge="1" parent="1" source="ZYS8lfl0qdMhJp2Zu_Ta-41" target="ZYS8lfl0qdMhJp2Zu_Ta-42">
          <mxGeometry relative="1" as="geometry" />
        </mxCell>
        <mxCell id="ZYS8lfl0qdMhJp2Zu_Ta-41" value="graph processing service" style="whiteSpace=wrap;html=1;fontSize=16;" vertex="1" parent="1">
          <mxGeometry x="908" y="2475" width="120" height="60" as="geometry" />
        </mxCell>
        <mxCell id="ZYS8lfl0qdMhJp2Zu_Ta-44" style="edgeStyle=none;curved=1;rounded=0;orthogonalLoop=1;jettySize=auto;html=1;fontSize=12;startSize=8;endSize=8;" edge="1" parent="1" source="ZYS8lfl0qdMhJp2Zu_Ta-42" target="ZYS8lfl0qdMhJp2Zu_Ta-43">
          <mxGeometry relative="1" as="geometry" />
        </mxCell>
        <mxCell id="ZYS8lfl0qdMhJp2Zu_Ta-42" value="Historical ETA&lt;br&gt;(if the Graph Processing Service is not able to calculate ETA then historical ETA is used)" style="rounded=0;whiteSpace=wrap;html=1;fontSize=16;" vertex="1" parent="1">
          <mxGeometry x="1079" y="2469" width="261" height="81" as="geometry" />
        </mxCell>
        <mxCell id="ZYS8lfl0qdMhJp2Zu_Ta-43" value="cassandra" style="rounded=0;whiteSpace=wrap;html=1;fontSize=16;" vertex="1" parent="1">
          <mxGeometry x="1387" y="2482" width="120" height="60" as="geometry" />
        </mxCell>
        <mxCell id="ZYS8lfl0qdMhJp2Zu_Ta-48" style="edgeStyle=none;curved=1;rounded=0;orthogonalLoop=1;jettySize=auto;html=1;entryX=1;entryY=0.5;entryDx=0;entryDy=0;fontSize=12;startSize=8;endSize=8;" edge="1" parent="1" source="ZYS8lfl0qdMhJp2Zu_Ta-46" target="ZYS8lfl0qdMhJp2Zu_Ta-47">
          <mxGeometry relative="1" as="geometry" />
        </mxCell>
        <mxCell id="ZYS8lfl0qdMhJp2Zu_Ta-51" style="edgeStyle=none;curved=1;rounded=0;orthogonalLoop=1;jettySize=auto;html=1;fontSize=12;startSize=8;endSize=8;" edge="1" parent="1" source="ZYS8lfl0qdMhJp2Zu_Ta-46">
          <mxGeometry relative="1" as="geometry">
            <mxPoint x="903.7058823529412" y="2515" as="targetPoint" />
          </mxGeometry>
        </mxCell>
        <mxCell id="ZYS8lfl0qdMhJp2Zu_Ta-46" value="segmentation service" style="rounded=0;whiteSpace=wrap;html=1;fontSize=16;" vertex="1" parent="1">
          <mxGeometry x="688" y="2485" width="120" height="60" as="geometry" />
        </mxCell>
        <mxCell id="ZYS8lfl0qdMhJp2Zu_Ta-47" value="cassandra" style="rounded=0;whiteSpace=wrap;html=1;fontSize=16;" vertex="1" parent="1">
          <mxGeometry x="529" y="2485" width="120" height="60" as="geometry" />
        </mxCell>
        <mxCell id="ZYS8lfl0qdMhJp2Zu_Ta-50" style="edgeStyle=none;curved=1;rounded=0;orthogonalLoop=1;jettySize=auto;html=1;fontSize=12;startSize=8;endSize=8;" edge="1" parent="1" source="ZYS8lfl0qdMhJp2Zu_Ta-49" target="ZYS8lfl0qdMhJp2Zu_Ta-41">
          <mxGeometry relative="1" as="geometry" />
        </mxCell>
        <mxCell id="ZYS8lfl0qdMhJp2Zu_Ta-49" value="3rd party Data Service" style="rounded=0;whiteSpace=wrap;html=1;fontSize=16;" vertex="1" parent="1">
          <mxGeometry x="788" y="2609" width="120" height="60" as="geometry" />
        </mxCell>
        <mxCell id="ZYS8lfl0qdMhJp2Zu_Ta-54" style="edgeStyle=none;curved=1;rounded=0;orthogonalLoop=1;jettySize=auto;html=1;entryX=0;entryY=0.75;entryDx=0;entryDy=0;fontSize=12;startSize=8;endSize=8;exitX=1.02;exitY=0.116;exitDx=0;exitDy=0;exitPerimeter=0;" edge="1" parent="1" source="ZYS8lfl0qdMhJp2Zu_Ta-53" target="ZYS8lfl0qdMhJp2Zu_Ta-33">
          <mxGeometry relative="1" as="geometry" />
        </mxCell>
        <mxCell id="ZYS8lfl0qdMhJp2Zu_Ta-55" style="edgeStyle=none;curved=1;rounded=0;orthogonalLoop=1;jettySize=auto;html=1;fontSize=12;startSize=8;endSize=8;exitX=0.982;exitY=0.913;exitDx=0;exitDy=0;exitPerimeter=0;" edge="1" parent="1" source="ZYS8lfl0qdMhJp2Zu_Ta-53" target="ZYS8lfl0qdMhJp2Zu_Ta-56">
          <mxGeometry relative="1" as="geometry">
            <mxPoint x="822.5294117647059" y="2439.529411764706" as="targetPoint" />
          </mxGeometry>
        </mxCell>
        <mxCell id="ZYS8lfl0qdMhJp2Zu_Ta-60" style="edgeStyle=none;curved=1;rounded=0;orthogonalLoop=1;jettySize=auto;html=1;fontSize=12;startSize=8;endSize=8;" edge="1" parent="1" source="ZYS8lfl0qdMhJp2Zu_Ta-61">
          <mxGeometry relative="1" as="geometry">
            <mxPoint x="819" y="2299.5" as="targetPoint" />
          </mxGeometry>
        </mxCell>
        <mxCell id="ZYS8lfl0qdMhJp2Zu_Ta-53" value="LB" style="whiteSpace=wrap;html=1;fontSize=16;" vertex="1" parent="1">
          <mxGeometry x="684" y="2174" width="62" height="251" as="geometry" />
        </mxCell>
        <mxCell id="ZYS8lfl0qdMhJp2Zu_Ta-57" style="edgeStyle=none;curved=1;rounded=0;orthogonalLoop=1;jettySize=auto;html=1;fontSize=12;startSize=8;endSize=8;" edge="1" parent="1" source="ZYS8lfl0qdMhJp2Zu_Ta-56" target="ZYS8lfl0qdMhJp2Zu_Ta-41">
          <mxGeometry relative="1" as="geometry" />
        </mxCell>
        <mxCell id="ZYS8lfl0qdMhJp2Zu_Ta-56" value="Maps Service&lt;br&gt;Interface service- user/&lt;br&gt;companies(rate limiting)" style="rounded=0;whiteSpace=wrap;html=1;fontSize=16;" vertex="1" parent="1">
          <mxGeometry x="811" y="2396" width="197" height="60" as="geometry" />
        </mxCell>
        <mxCell id="ZYS8lfl0qdMhJp2Zu_Ta-58" value="cassandra&lt;br&gt;live traffic| road wts" style="rounded=0;whiteSpace=wrap;html=1;fontSize=16;" vertex="1" parent="1">
          <mxGeometry x="1005" y="2625" width="178" height="60" as="geometry" />
        </mxCell>
        <mxCell id="ZYS8lfl0qdMhJp2Zu_Ta-59" style="edgeStyle=none;curved=1;rounded=0;orthogonalLoop=1;jettySize=auto;html=1;entryX=0.621;entryY=0.977;entryDx=0;entryDy=0;entryPerimeter=0;fontSize=12;startSize=8;endSize=8;" edge="1" parent="1" source="ZYS8lfl0qdMhJp2Zu_Ta-58" target="ZYS8lfl0qdMhJp2Zu_Ta-41">
          <mxGeometry relative="1" as="geometry" />
        </mxCell>
        <mxCell id="ZYS8lfl0qdMhJp2Zu_Ta-62" value="" style="edgeStyle=none;curved=1;rounded=0;orthogonalLoop=1;jettySize=auto;html=1;fontSize=12;startSize=8;endSize=8;" edge="1" parent="1" source="ZYS8lfl0qdMhJp2Zu_Ta-53" target="ZYS8lfl0qdMhJp2Zu_Ta-61">
          <mxGeometry relative="1" as="geometry">
            <mxPoint x="819" y="2299.5" as="targetPoint" />
            <mxPoint x="746" y="2300" as="sourcePoint" />
          </mxGeometry>
        </mxCell>
        <mxCell id="ZYS8lfl0qdMhJp2Zu_Ta-63" style="edgeStyle=none;curved=1;rounded=0;orthogonalLoop=1;jettySize=auto;html=1;fontSize=12;startSize=8;endSize=8;" edge="1" parent="1" source="ZYS8lfl0qdMhJp2Zu_Ta-64">
          <mxGeometry relative="1" as="geometry">
            <mxPoint x="1188.3333333333335" y="2297" as="targetPoint" />
          </mxGeometry>
        </mxCell>
        <mxCell id="ZYS8lfl0qdMhJp2Zu_Ta-61" value="Navigation&lt;br&gt;Tracking Service" style="rounded=0;whiteSpace=wrap;html=1;fontSize=16;" vertex="1" parent="1">
          <mxGeometry x="785.33" y="2267" width="120" height="60" as="geometry" />
        </mxCell>
        <mxCell id="ZYS8lfl0qdMhJp2Zu_Ta-65" value="" style="edgeStyle=none;curved=1;rounded=0;orthogonalLoop=1;jettySize=auto;html=1;fontSize=12;startSize=8;endSize=8;" edge="1" parent="1" source="ZYS8lfl0qdMhJp2Zu_Ta-61" target="ZYS8lfl0qdMhJp2Zu_Ta-64">
          <mxGeometry relative="1" as="geometry">
            <mxPoint x="1188.3333333333335" y="2297" as="targetPoint" />
            <mxPoint x="905" y="2297" as="sourcePoint" />
          </mxGeometry>
        </mxCell>
        <mxCell id="ZYS8lfl0qdMhJp2Zu_Ta-66" style="edgeStyle=none;curved=1;rounded=0;orthogonalLoop=1;jettySize=auto;html=1;exitX=1;exitY=0.25;exitDx=0;exitDy=0;fontSize=12;startSize=8;endSize=8;" edge="1" parent="1" source="ZYS8lfl0qdMhJp2Zu_Ta-64" target="ZYS8lfl0qdMhJp2Zu_Ta-67">
          <mxGeometry relative="1" as="geometry">
            <mxPoint x="1352" y="2245" as="targetPoint" />
          </mxGeometry>
        </mxCell>
        <mxCell id="ZYS8lfl0qdMhJp2Zu_Ta-68" style="edgeStyle=none;curved=1;rounded=0;orthogonalLoop=1;jettySize=auto;html=1;exitX=1;exitY=0.75;exitDx=0;exitDy=0;fontSize=12;startSize=8;endSize=8;" edge="1" parent="1" source="ZYS8lfl0qdMhJp2Zu_Ta-69">
          <mxGeometry relative="1" as="geometry">
            <mxPoint x="1335" y="2346.3333333333335" as="targetPoint" />
          </mxGeometry>
        </mxCell>
        <mxCell id="ZYS8lfl0qdMhJp2Zu_Ta-64" value="Kafka" style="whiteSpace=wrap;html=1;fontSize=16;" vertex="1" parent="1">
          <mxGeometry x="1180" y="2197" width="88" height="193" as="geometry" />
        </mxCell>
        <mxCell id="ZYS8lfl0qdMhJp2Zu_Ta-67" value="3rd party accuracy analyzer" style="rounded=0;whiteSpace=wrap;html=1;fontSize=16;" vertex="1" parent="1">
          <mxGeometry x="1292" y="2215" width="120" height="60" as="geometry" />
        </mxCell>
        <mxCell id="ZYS8lfl0qdMhJp2Zu_Ta-70" value="" style="edgeStyle=none;curved=1;rounded=0;orthogonalLoop=1;jettySize=auto;html=1;exitX=1;exitY=0.75;exitDx=0;exitDy=0;fontSize=12;startSize=8;endSize=8;" edge="1" parent="1" source="ZYS8lfl0qdMhJp2Zu_Ta-64" target="ZYS8lfl0qdMhJp2Zu_Ta-69">
          <mxGeometry relative="1" as="geometry">
            <mxPoint x="1335" y="2346.3333333333335" as="targetPoint" />
            <mxPoint x="1268" y="2342" as="sourcePoint" />
          </mxGeometry>
        </mxCell>
        <mxCell id="ZYS8lfl0qdMhJp2Zu_Ta-69" value="spark streaming server&lt;br&gt;-accuracy of prediction ,hot spot locations ,etc" style="whiteSpace=wrap;html=1;fontSize=16;" vertex="1" parent="1">
          <mxGeometry x="1308" y="2327" width="178" height="74" as="geometry" />
        </mxCell>
        <mxCell id="ZYS8lfl0qdMhJp2Zu_Ta-73" value="" style="edgeStyle=none;curved=1;rounded=0;orthogonalLoop=1;jettySize=auto;html=1;fontSize=12;startSize=8;endSize=8;" edge="1" parent="1" source="ZYS8lfl0qdMhJp2Zu_Ta-69" target="ZYS8lfl0qdMhJp2Zu_Ta-72">
          <mxGeometry relative="1" as="geometry">
            <mxPoint x="1539" y="2363.9999999999995" as="targetPoint" />
            <mxPoint x="1486" y="2364" as="sourcePoint" />
          </mxGeometry>
        </mxCell>
        <mxCell id="ZYS8lfl0qdMhJp2Zu_Ta-75" value="" style="edgeStyle=none;curved=1;rounded=0;orthogonalLoop=1;jettySize=auto;html=1;fontSize=12;startSize=8;endSize=8;" edge="1" parent="1" source="ZYS8lfl0qdMhJp2Zu_Ta-72" target="ZYS8lfl0qdMhJp2Zu_Ta-74">
          <mxGeometry relative="1" as="geometry" />
        </mxCell>
        <mxCell id="ZYS8lfl0qdMhJp2Zu_Ta-72" value="Hadoop" style="whiteSpace=wrap;html=1;fontSize=16;" vertex="1" parent="1">
          <mxGeometry x="1507" y="2334" width="120" height="60" as="geometry" />
        </mxCell>
        <mxCell id="ZYS8lfl0qdMhJp2Zu_Ta-76" style="edgeStyle=none;curved=1;rounded=0;orthogonalLoop=1;jettySize=auto;html=1;entryX=0.5;entryY=1;entryDx=0;entryDy=0;fontSize=12;startSize=8;endSize=8;" edge="1" parent="1" source="ZYS8lfl0qdMhJp2Zu_Ta-74" target="ZYS8lfl0qdMhJp2Zu_Ta-64">
          <mxGeometry relative="1" as="geometry">
            <Array as="points">
              <mxPoint x="1367" y="2461" />
              <mxPoint x="1228" y="2450" />
              <mxPoint x="1210" y="2433" />
            </Array>
          </mxGeometry>
        </mxCell>
        <mxCell id="ZYS8lfl0qdMhJp2Zu_Ta-74" value="spark cluster&lt;br&gt;-user profiling&lt;br&gt;eg traveller,social person" style="whiteSpace=wrap;html=1;fontSize=16;" vertex="1" parent="1">
          <mxGeometry x="1517" y="2425" width="138" height="83" as="geometry" />
        </mxCell>
        <mxCell id="ZYS8lfl0qdMhJp2Zu_Ta-77" value="Graph update service can do the following things:-&lt;br&gt;1) if the last route calculated was not long ago then the cached data could be used&lt;br&gt;2) if the start and end points are in the same segment then it will run Dijkstra locally&lt;br&gt;3) it will get routing details from segments and run a higher level Dijkstra" style="text;html=1;strokeColor=none;fillColor=none;align=center;verticalAlign=middle;whiteSpace=wrap;rounded=0;fontSize=16;" vertex="1" parent="1">
          <mxGeometry x="804" y="2708" width="634" height="166" as="geometry" />
        </mxCell>
        <mxCell id="ZYS8lfl0qdMhJp2Zu_Ta-79" value="spark streaming will tell which road are we in" style="text;html=1;align=center;verticalAlign=middle;resizable=0;points=[];autosize=1;strokeColor=none;fillColor=none;fontSize=16;" vertex="1" parent="1">
          <mxGeometry x="1647" y="2451" width="335" height="31" as="geometry" />
        </mxCell>
      </root>
    </mxGraphModel>
  </diagram>
</mxfile>
